<?xml version="1.0" encoding="UTF-8" standalone="no"?>
<!-- Created with Inkscape (http://www.inkscape.org/) -->

<svg
   xmlns:dc="http://purl.org/dc/elements/1.1/"
   xmlns:cc="http://creativecommons.org/ns#"
   xmlns:rdf="http://www.w3.org/1999/02/22-rdf-syntax-ns#"
   xmlns:svg="http://www.w3.org/2000/svg"
   xmlns="http://www.w3.org/2000/svg"
   xmlns:xlink="http://www.w3.org/1999/xlink"
   xmlns:sodipodi="http://sodipodi.sourceforge.net/DTD/sodipodi-0.dtd"
   xmlns:inkscape="http://www.inkscape.org/namespaces/inkscape"
   width="162.38402mm"
   height="160.10985mm"
   viewBox="0 0 162.38402 160.10985"
   version="1.1"
   id="svg8"
   inkscape:version="0.92.1 r15371"
   sodipodi:docname="brocchetta.svg"
   style="enable-background:new">
  <defs
     id="defs2">
    <linearGradient
       inkscape:collect="always"
       id="linearGradient5249">
      <stop
         style="stop-color:#450808;stop-opacity:1;"
         offset="0"
         id="stop5245" />
      <stop
         style="stop-color:#8f0d0d;stop-opacity:0"
         offset="1"
         id="stop5247" />
    </linearGradient>
    <linearGradient
       inkscape:collect="always"
       id="linearGradient5176">
      <stop
         style="stop-color:#e79292;stop-opacity:0.75294119"
         offset="0"
         id="stop5172" />
      <stop
         id="stop5180"
         offset="0.37833813"
         style="stop-color:#f3c8c8;stop-opacity:0.59215686;" />
      <stop
         style="stop-color:#ffffff;stop-opacity:1"
         offset="1"
         id="stop5174" />
    </linearGradient>
    <linearGradient
       inkscape:collect="always"
       id="linearGradient5081">
      <stop
         style="stop-color:#8f0d0d;stop-opacity:1;"
         offset="0"
         id="stop5077" />
      <stop
         style="stop-color:#ffa3a3;stop-opacity:1"
         offset="1"
         id="stop5079" />
    </linearGradient>
    <linearGradient
       inkscape:collect="always"
       xlink:href="#linearGradient5081"
       id="linearGradient5085"
       x1="406.23846"
       y1="330.12088"
       x2="400.84708"
       y2="287.09048"
       gradientUnits="userSpaceOnUse"
       gradientTransform="translate(6.6799466,-9.216253)" />
    <linearGradient
       inkscape:collect="always"
       xlink:href="#linearGradient5081"
       id="linearGradient5089"
       x1="458.81415"
       y1="284.76547"
       x2="450.53699"
       y2="251.46368"
       gradientUnits="userSpaceOnUse"
       gradientTransform="translate(-14.33895,-4.5384991)" />
    <linearGradient
       inkscape:collect="always"
       xlink:href="#linearGradient5081"
       id="linearGradient5093"
       x1="493.58392"
       y1="234.43887"
       x2="467.0491"
       y2="199.64038"
       gradientUnits="userSpaceOnUse"
       gradientTransform="rotate(20.000001,479.96408,207.0402)" />
    <linearGradient
       inkscape:collect="always"
       xlink:href="#linearGradient5081"
       id="linearGradient5099"
       x1="387.46738"
       y1="233.5"
       x2="402.16666"
       y2="201.75"
       gradientUnits="userSpaceOnUse"
       gradientTransform="rotate(14.999999,432.05414,260.26106)" />
    <linearGradient
       inkscape:collect="always"
       xlink:href="#linearGradient5081"
       id="linearGradient5115"
       x1="1535.3895"
       y1="1247.7009"
       x2="1515.0126"
       y2="1085.0664"
       gradientUnits="userSpaceOnUse"
       gradientTransform="matrix(0.26458333,0,0,0.26458333,6.6799466,-9.216253)" />
    <linearGradient
       inkscape:collect="always"
       xlink:href="#linearGradient5081"
       id="linearGradient5117"
       x1="1464.4436"
       y1="882.51971"
       x2="1520"
       y2="762.51971"
       gradientUnits="userSpaceOnUse"
       gradientTransform="matrix(0.25556787,0.0684792,-0.0684792,0.25556787,82.082406,-102.95565)" />
    <linearGradient
       inkscape:collect="always"
       xlink:href="#linearGradient5081"
       id="linearGradient5119"
       x1="1865.514"
       y1="886.06818"
       x2="1765.225"
       y2="754.54633"
       gradientUnits="userSpaceOnUse"
       gradientTransform="matrix(0.248627,0.09049283,-0.09049283,0.248627,99.757301,-151.67133)" />
    <linearGradient
       inkscape:collect="always"
       xlink:href="#linearGradient5081"
       id="linearGradient5121"
       x1="1734.1007"
       y1="1076.2789"
       x2="1702.817"
       y2="950.41394"
       gradientUnits="userSpaceOnUse"
       gradientTransform="matrix(0.26458333,0,0,0.26458333,-14.33895,-4.5384991)" />
    <linearGradient
       inkscape:collect="always"
       xlink:href="#linearGradient5176"
       id="linearGradient5178"
       x1="442.9418"
       y1="253.43773"
       x2="447.82288"
       y2="223.93668"
       gradientUnits="userSpaceOnUse" />
    <linearGradient
       inkscape:collect="always"
       xlink:href="#linearGradient5176"
       id="linearGradient5188"
       x1="439.03436"
       y1="252.63702"
       x2="437.05688"
       y2="220.21637"
       gradientUnits="userSpaceOnUse" />
    <linearGradient
       inkscape:collect="always"
       xlink:href="#linearGradient5176"
       id="linearGradient5201"
       x1="418.5997"
       y1="277.93326"
       x2="425.91196"
       y2="240.10471"
       gradientUnits="userSpaceOnUse" />
    <linearGradient
       gradientTransform="translate(-1.5e-5)"
       inkscape:collect="always"
       xlink:href="#linearGradient5176"
       id="linearGradient5201-1"
       x1="418.5997"
       y1="277.93326"
       x2="424.58905"
       y2="244.60263"
       gradientUnits="userSpaceOnUse" />
    <radialGradient
       inkscape:collect="always"
       xlink:href="#linearGradient5249"
       id="radialGradient5251"
       cx="439.5816"
       cy="255.03992"
       fx="439.5816"
       fy="255.03992"
       r="79.001762"
       gradientUnits="userSpaceOnUse"
       gradientTransform="matrix(0.73036635,0,0,0.73036635,121.1718,66.121538)" />
    <filter
       inkscape:collect="always"
       style="color-interpolation-filters:sRGB"
       id="filter5377"
       x="-0.10878348"
       width="1.217567"
       y="-0.13379548"
       height="1.267591">
      <feGaussianBlur
         inkscape:collect="always"
         stdDeviation="2.8900093"
         id="feGaussianBlur5379" />
    </filter>
    <filter
       inkscape:collect="always"
       style="color-interpolation-filters:sRGB"
       id="filter5433"
       x="-0.10582928"
       width="1.2116586"
       y="-0.13855241"
       height="1.2771049">
      <feGaussianBlur
         inkscape:collect="always"
         stdDeviation="3.0083517"
         id="feGaussianBlur5435" />
    </filter>
    <filter
       inkscape:collect="always"
       style="color-interpolation-filters:sRGB"
       id="filter5616"
       x="-0.11092505"
       width="1.2218502"
       y="-0.13069212"
       height="1.2613842">
      <feGaussianBlur
         inkscape:collect="always"
         stdDeviation="2.3594057"
         id="feGaussianBlur5618" />
    </filter>
    <filter
       inkscape:collect="always"
       style="color-interpolation-filters:sRGB"
       id="filter5664"
       x="-0.093298867"
       width="1.1865977"
       y="-0.16811179"
       height="1.3362236">
      <feGaussianBlur
         inkscape:collect="always"
         stdDeviation="3.4981325"
         id="feGaussianBlur5666" />
    </filter>
  </defs>
  <sodipodi:namedview
     id="base"
     pagecolor="#ffffff"
     bordercolor="#666666"
     borderopacity="1.0"
     inkscape:pageopacity="0.0"
     inkscape:pageshadow="2"
     inkscape:zoom="0.70710678"
     inkscape:cx="287.8023"
     inkscape:cy="258.86076"
     inkscape:document-units="mm"
     inkscape:current-layer="layer3"
     showgrid="false"
     showguides="true"
     inkscape:guide-bbox="true"
     inkscape:snap-tangential="false"
     inkscape:window-width="1198"
     inkscape:window-height="698"
     inkscape:window-x="-24"
     inkscape:window-y="62"
     inkscape:window-maximized="0"
     objecttolerance="15"
     fit-margin-top="0"
     fit-margin-left="0"
     fit-margin-right="0"
     fit-margin-bottom="0">
    <inkscape:grid
       type="xygrid"
       id="grid4566"
       originx="-360.57984"
       originy="37.041672" />
    <sodipodi:guide
       position="-82.767346,209.02084"
       orientation="1,0"
       id="guide4741"
       inkscape:locked="false" />
  </sodipodi:namedview>
  <metadata
     id="metadata5">
    <rdf:RDF>
      <cc:Work
         rdf:about="">
        <dc:format>image/svg+xml</dc:format>
        <dc:type
           rdf:resource="http://purl.org/dc/dcmitype/StillImage" />
        <dc:title />
      </cc:Work>
    </rdf:RDF>
  </metadata>
  <g
     inkscape:groupmode="layer"
     id="layer3"
     inkscape:label="sfondo"
     style="display:inline"
     transform="translate(-360.57983,-173.93183)">
    <rect
       style="opacity:1;fill:url(#radialGradient5251);fill-opacity:1;fill-rule:nonzero;stroke:none;stroke-width:1;stroke-linecap:round;stroke-linejoin:round;stroke-miterlimit:4;stroke-dasharray:none;stroke-dashoffset:0;stroke-opacity:1;paint-order:normal"
       id="rect4921"
       width="163.29514"
       height="163.29514"
       x="360.57983"
       y="170.74654" />
  </g>
  <g
     inkscape:groupmode="layer"
     id="layer2"
     inkscape:label="brocca"
     style="display:inline"
     transform="translate(-360.57983,-173.93183)"
     sodipodi:insensitive="true">
    <path
       style="display:inline;opacity:1;fill:#450808;fill-opacity:1;fill-rule:nonzero;stroke:#450808;stroke-width:0.99999994;stroke-linecap:butt;stroke-linejoin:round;stroke-miterlimit:4;stroke-dasharray:none;stroke-dashoffset:0;stroke-opacity:1;filter:url(#filter5616)"
       d="m 427.7948,241.725 c -2.15297,0.0579 -1.95205,1.23817 0,1.23817 2.15302,1.18013 1.9518,2.47576 1.9518,4.95164 -7.80825,3.71381 -11.70069,8.94513 -11.71194,17.33072 0,8.66558 13.66401,16.09355 11.71194,18.56941 -1.17123,0 -1.17123,1.23764 0,1.23764 h 23.42494 c 1.1712,0 1.1712,-1.23764 0,-1.23764 -1.7132,-2.17289 8.60107,-8.16028 11.15126,-15.45074 1.43788,1.65633 2.82498,1.01102 3.54603,0.78239 0.39039,-0.24759 1.43978,-0.65228 1.17099,-1.23765 -0.26879,-0.58539 -1.9521,0.99006 -3.12333,-0.99064 0.78081,-3.7138 3.17273,-6.43078 3.12333,-11.38897 0,-2.47587 -5.80721,-3.21865 -8.9793,-4.45658 -1.31765,-0.43329 0.3904,-1.23805 0,-1.73322 -1.17125,0 -1.9518,0.49539 -1.95183,1.23816 0,0 -0.0312,0.0901 -0.0455,0.22118 -1.41216,-1.05244 -3.04081,-2.00372 -4.8917,-2.88406 0,-0.99035 3e-5,-1.48548 1.9518,-2.47582 0.78066,0 0.78082,-1.23759 0,-1.23817 -1.5e-4,-5e-5 0,5e-5 0,0 -7.61883,-2.41563 -17.09615,-1.06117 -26.61851,-2.14405 -0.24048,-0.10605 -0.47738,-0.21642 -0.71003,-0.33177 z m 32.04196,10.55595 c 3.18355,1.02484 7.63773,1.52454 7.5923,4.47983 0.0313,3.14341 -1.52484,5.28913 -2.56987,7.38508 -0.20682,-5.12033 -1.87899,-8.88654 -5.02243,-11.86491 z"
       id="rect4586-0-4-7"
       inkscape:connector-curvature="0" />
    <path
       style="display:inline;opacity:1;fill:#450808;fill-opacity:1;fill-rule:nonzero;stroke:#450808;stroke-width:1;stroke-linecap:butt;stroke-linejoin:round;stroke-miterlimit:4;stroke-dasharray:none;stroke-dashoffset:0;stroke-opacity:1;filter:url(#filter5433)"
       d="m 483.05002,186.92018 c -0.15494,-0.002 -0.3139,0.0295 -0.4744,0.10904 -0.85598,0.42387 1.866,1.65302 -0.98493,3.34502 -5.86248,0.24083 -10.46766,-1.37562 -18.10486,0.0212 -3.81788,0.67321 -3.95417,6.59418 -5.31233,10.05468 -0.43934,1.41543 -1.97689,-0.0473 -2.67269,0.47181 0.20339,1.15344 1.10252,1.78686 2.2479,1.58491 0,0 0.1792,0.008 0.42532,-0.0248 -1.45767,1.73422 -2.69928,3.67277 -3.78169,5.82703 -1.52717,0.26928 -2.29071,0.40358 -4.15684,-1.24954 -0.13557,-0.76895 -2.04505,-0.43203 -1.90945,0.33693 6e-5,3.3e-4 -5e-5,7.1e-4 0,0.001 -2.40173,8.15982 1.33258,17.12481 1.3162,26.79681 -0.12168,0.26537 -0.25077,0.52837 -0.38809,0.78858 0.46307,2.10454 2.24787,1.58599 1.90891,-0.33641 1.44595,-2.44118 3.47883,-2.59584 7.29671,-3.26905 7.08279,6.67983 15.82653,9.09134 28.75949,6.82232 13.36271,-2.35621 22.44352,-17.8327 26.60044,-16.58348 0.20339,1.15343 2.11236,0.81702 1.90895,-0.33641 l -4.06747,-23.06888 c -0.20336,-1.15344 -2.11283,-0.81648 -1.90944,0.33693 -3.06764,2.28875 -14.18019,-6.33187 -25.92658,-6.78718 2.66713,-1.98727 1.35837,-3.24265 0.86299,-3.91449 -0.28098,-0.19824 -0.70164,-0.63343 -1.18649,-0.82837 -0.14547,-0.0585 -0.29671,-0.0952 -0.45165,-0.0977 z m -12.95217,4.36563 c 3.00479,0.0536 5.53228,0.67203 8.00674,0.95808 -8.20174,1.56978 -13.91222,4.26613 -18.07538,8.25686 1.07683,-3.43043 1.0002,-8.08327 5.63531,-8.85372 1.60282,-0.29315 3.0675,-0.3856 4.43333,-0.36122 z"
       id="rect4586-0-3-3"
       inkscape:connector-curvature="0" />
    <path
       style="display:inline;opacity:1;fill:#450808;fill-opacity:1;fill-rule:nonzero;stroke:#450808;stroke-width:1;stroke-linecap:butt;stroke-linejoin:round;stroke-miterlimit:4;stroke-dasharray:none;stroke-dashoffset:0;stroke-opacity:1;filter:url(#filter5377)"
       d="m 403.96113,180.86808 c -0.43619,0.003 -0.92715,0.6622 -1.20304,0.91984 -0.36274,0.57335 -1.18313,1.58034 -0.47643,3.09128 -0.45921,-0.13449 -0.92609,-0.26665 -1.40819,-0.39584 -13.10659,-3.5119 -18.75795,8.66938 -21.90668,5.08651 0.3424,-1.27784 -0.93557,-1.62045 -1.27797,-0.34261 l -6.16291,23.00118 c -0.3424,1.27784 0.93504,1.62046 1.27744,0.34261 4.51831,-1.52849 3.32197,11.84689 16.42845,15.35876 12.68603,3.38757 19.7226,1.04204 27.36059,-4.99505 3.74473,1.00339 14.05623,3.76614 16.86256,8.62686 -0.3424,1.27783 0.93556,1.62047 1.27793,0.34262 -2.17762,-3.77178 -3.24622,-7.24747 -3.42198,-11.174 0.51413,3.70005 1.69214,7.43121 3.42198,11.174 0.65382,-9.92943 0.90475,-19.06566 -0.81907,-27.61124 0.3424,-1.27783 -0.93556,-1.62047 -1.27793,-0.34261 -3.24049,1.87087 -9.06738,-1.06007 -10.56527,-1.46141 -0.99478,-2.50273 -2.05922,-4.72839 -3.35483,-6.71535 0.36105,-0.25538 0.66362,-0.74168 0.84026,-1.40095 -0.36944,-0.50317 -1.57628,0.94173 -1.64692,-0.44132 -0.35518,-3.37917 0.44238,-9.17787 -1.90995,-9.80818 -4.69805,-1.30998 -7.89863,0.30907 -11.62929,0.11782 -1.57874,-1.63557 0.3538,-2.8604 -0.13279,-3.26905 -0.0608,-0.0511 -0.12396,-0.0815 -0.18915,-0.0951 -0.0285,-0.006 -0.0577,-0.009 -0.0868,-0.009 z m 8.0791,4.17029 c 0.75409,0.003 1.54218,0.0957 2.37194,0.32711 2.61236,0.65639 2.22329,4.50497 2.27065,7.72097 -2.52298,-2.86543 -5.86697,-5.14137 -10.72128,-6.98045 1.85989,-0.28062 3.81643,-1.0773 6.07869,-1.06763 z"
       id="rect4586-6"
       inkscape:connector-curvature="0" />
    <path
       style="opacity:1;fill:#450808;fill-opacity:1;fill-rule:nonzero;stroke:#6b2b2b;stroke-width:0.99999994;stroke-linecap:butt;stroke-linejoin:round;stroke-miterlimit:4;stroke-dasharray:none;stroke-dashoffset:0;stroke-opacity:1"
       d="m 455.12356,244.20087 c -9.76029,1.23794 -19.5206,1.48553 -27.32884,-2.22828 9.76031,1.23794 19.52061,-0.24758 27.32884,2.22828 z"
       id="rect4586-0-4"
       inkscape:connector-curvature="0"
       sodipodi:nodetypes="ccc" />
    <path
       style="opacity:1;fill:#450808;fill-opacity:1;fill-rule:nonzero;stroke:#6b2b2b;stroke-width:1;stroke-linecap:butt;stroke-linejoin:round;stroke-miterlimit:4;stroke-dasharray:none;stroke-dashoffset:0;stroke-opacity:1"
       d="m 433.91355,204.29294 c -4.39851,8.92602 -3.5157,18.23215 0.81912,27.61116 0.65379,-9.92943 0.90468,-19.06559 -0.81912,-27.61116 z"
       id="rect4586"
       inkscape:connector-curvature="0"
       sodipodi:nodetypes="ccc" />
    <path
       style="opacity:1;fill:#450808;fill-opacity:1;fill-rule:nonzero;stroke:#6b2b2b;stroke-width:1;stroke-linecap:butt;stroke-linejoin:round;stroke-miterlimit:4;stroke-dasharray:none;stroke-dashoffset:0;stroke-opacity:1"
       d="m 448.32647,207.3962 c 3.60381,9.27541 5.68046,18.82012 1.30947,27.51954 0.2141,-9.94863 -3.77151,-19.15674 -1.30947,-27.51954 z"
       id="rect4586-0-3"
       inkscape:connector-curvature="0"
       sodipodi:nodetypes="ccc" />
    <path
       style="display:inline;opacity:0.98000004;fill:url(#linearGradient5178);fill-opacity:1;fill-rule:nonzero;stroke:none;stroke-width:0.99999994;stroke-linecap:round;stroke-linejoin:round;stroke-miterlimit:4;stroke-dasharray:none;stroke-dashoffset:0;stroke-opacity:0.94117647;paint-order:normal"
       d="m 460.126,219.32661 c -11.18598,3.8684 -8.7542,8.9957 -10.87166,15.65633 -2.11746,6.66063 -3.62051,9.25224 -3.18215,14.78565 -1.58287,1.76351 -7.07677,-1.008 -5.49238,-2.7937 0.22965,-1.84747 0.58567,-3.94487 2.24581,-11.6392 1.66015,-7.69433 4.15379,-10.72763 12.15853,-15.25894 0.52342,-0.7017 1.47183,-0.94096 3.16039,-1.06631 0.67014,-0.10588 1.37816,0.006 1.98146,0.31617 z"
       id="path4938"
       inkscape:connector-curvature="0"
       sodipodi:nodetypes="czcczccc" />
    <path
       style="display:inline;opacity:0.98000004;fill:url(#linearGradient5188);fill-opacity:1;fill-rule:nonzero;stroke:none;stroke-width:1;stroke-linecap:round;stroke-linejoin:round;stroke-miterlimit:4;stroke-dasharray:none;stroke-dashoffset:0;stroke-opacity:0.94117647;paint-order:normal"
       d="m 431.96579,218.29486 c 7.43407,5.23277 9.85148,21.13078 8.61402,28.68003 -0.48113,1.63207 -4.66111,3.34559 -4.53243,2.30944 -0.23597,-3.74631 -0.41395,-16.58538 -1.507,-19.43743 -2.78327,-8.67928 -11.1113,-8.87544 -17.02914,-11.39829 -0.98025,-0.77571 -0.69936,-2.8133 2.06682,-2.54113 2.76619,0.27217 9.01222,0.68776 12.38773,2.38738 z"
       id="path4940"
       inkscape:connector-curvature="0"
       sodipodi:nodetypes="ccccccc" />
    <path
       inkscape:connector-curvature="0"
       style="opacity:1;fill:url(#linearGradient5093);fill-opacity:1;fill-rule:nonzero;stroke:url(#linearGradient5119);stroke-width:1;stroke-linecap:round;stroke-linejoin:bevel;stroke-miterlimit:4;stroke-dasharray:none;stroke-dashoffset:0;stroke-opacity:1;paint-order:normal"
       d="m 483.50156,187.01785 c -0.29093,-0.11698 -0.60476,-0.1478 -0.92576,0.0112 -0.85599,0.42387 1.86599,1.65328 -0.98495,3.34528 -5.86247,0.24083 -10.46757,-1.37571 -18.10477,0.0211 -3.8179,0.67321 -3.95455,6.59429 -5.3127,10.05479 -0.43935,1.41543 -1.97685,-0.0478 -2.67266,0.47134 0.20339,1.15345 1.10258,1.7873 2.24797,1.58535 0,0 0.17929,0.008 0.42541,-0.025 -1.45765,1.73422 -2.69929,3.67284 -3.78169,5.8271 -1.52717,0.26928 -2.29076,0.40355 -4.1569,-1.24957 -0.13557,-0.76896 -2.04488,-0.43222 -1.90928,0.33674 1.35587,7.68962 5.42316,19.06955 0.9281,27.58679 0.46309,2.10454 2.2476,1.58597 1.90864,-0.33643 1.44595,-2.44118 3.4789,-2.59591 7.29681,-3.26912 7.08278,6.67983 15.82655,9.09116 28.75953,6.82214 13.36271,-2.35621 22.44354,-17.83261 26.60046,-16.58339 0.20337,1.15343 2.11251,0.81717 1.9091,-0.33626 l -4.06768,-23.06908 c -0.20337,-1.15344 -2.11267,-0.81667 -1.90929,0.33674 -3.06764,2.28875 -14.18055,-6.33177 -25.92695,-6.78708 2.66714,-1.98727 1.35859,-3.24239 0.8632,-3.91423 -0.28099,-0.19824 -0.70174,-0.63343 -1.18659,-0.82838 z m -5.39693,5.226 c -8.20173,1.56978 -13.91221,4.26582 -18.07538,8.25654 1.07682,-3.43043 1.00035,-8.08296 5.63546,-8.85341 5.129,-0.93808 8.8407,0.18079 12.43992,0.59687 z"
       id="path4575-2-5" />
    <path
       inkscape:connector-curvature="0"
       style="opacity:1;fill:url(#linearGradient5099);fill-opacity:1;fill-rule:nonzero;stroke:url(#linearGradient5117);stroke-width:1;stroke-linecap:round;stroke-linejoin:bevel;stroke-miterlimit:4;stroke-dasharray:none;stroke-dashoffset:0;stroke-opacity:1;paint-order:normal"
       d="m 404.04749,180.8766 c -0.45621,-0.0951 -0.99527,0.63636 -1.28952,0.91117 -0.36276,0.57335 -1.183,1.58048 -0.47631,3.09143 -0.4592,-0.13449 -0.92632,-0.26694 -1.40843,-0.39612 -13.10659,-3.5119 -18.75803,8.66964 -21.90675,5.08677 0.34239,-1.27784 -0.93545,-1.62023 -1.27784,-0.34239 l -6.16313,23.00111 c -0.3424,1.27783 0.93544,1.62023 1.27784,0.34239 4.51831,-1.52849 3.32193,11.84678 16.42842,15.35866 12.68603,3.38757 19.72251,1.04206 27.36051,-4.99503 3.74471,1.00339 14.05624,3.76634 16.86256,8.62706 -0.34239,1.27784 0.93545,1.62024 1.27784,0.34239 -4.67721,-8.10117 -4.24307,-14.83277 -0.81911,-27.61116 0.34239,-1.27784 -0.93545,-1.62024 -1.27784,-0.34239 -3.24047,1.87088 -9.06723,-1.05998 -10.56511,-1.46133 -0.99479,-2.50273 -2.05966,-4.72853 -3.35527,-6.71549 0.36103,-0.25538 0.66372,-0.74194 0.84037,-1.40121 -0.36943,-0.50317 -1.57609,0.94181 -1.64672,-0.44124 -0.35518,-3.37917 0.44203,-9.17761 -1.91032,-9.80792 -4.69804,-1.30998 -7.89845,0.30875 -11.62909,0.1175 -1.57874,-1.63557 0.35408,-2.86036 -0.13252,-3.26901 -0.0608,-0.0511 -0.12438,-0.0816 -0.18957,-0.0952 z m 10.36428,4.48908 c 2.61235,0.65638 2.22372,4.50473 2.27109,7.72074 -2.52299,-2.86544 -5.86739,-5.14148 -10.72171,-6.98055 2.47985,-0.37416 5.13153,-1.66569 8.45062,-0.74019 z"
       id="path4575" />
    <path
       style="display:inline;opacity:0.98000004;fill:url(#linearGradient5201);fill-opacity:1;fill-rule:nonzero;stroke:none;stroke-width:1;stroke-linecap:round;stroke-linejoin:round;stroke-miterlimit:4;stroke-dasharray:none;stroke-dashoffset:0;stroke-opacity:0.94117647;paint-order:normal"
       d="m 433.21349,250.52035 c -2.70304,-5.63025 1.44907,-10.06327 -5.41872,-7.55716 0.33931,3.61674 -2.50626,7.48084 -2.82523,-1.63345 6.4607,-0.89634 12.74702,0.52582 15.68485,3.12664 0.98375,2.91539 -0.85891,5.59777 -7.4409,6.06397 z"
       id="path4936"
       inkscape:connector-curvature="0"
       sodipodi:nodetypes="ccccc" />
    <path
       inkscape:connector-curvature="0"
       style="opacity:1;fill:url(#linearGradient5089);fill-opacity:1;fill-rule:nonzero;stroke:url(#linearGradient5121);stroke-width:0.99999994;stroke-linecap:round;stroke-linejoin:bevel;stroke-miterlimit:4;stroke-dasharray:none;stroke-dashoffset:0;stroke-opacity:1;paint-order:normal"
       d="m 427.79477,241.72502 c -2.15297,0.0579 -1.95204,1.23817 0,1.23817 2.15302,1.18013 1.95183,2.47575 1.95183,4.95163 -7.80825,3.71381 -11.70069,8.94512 -11.71194,17.33071 0,8.66558 13.66401,16.09355 11.71194,18.56941 -1.17123,0 -1.17123,1.23767 0,1.23767 h 23.42494 c 1.1712,0 1.1712,-1.23767 0,-1.23767 -1.7132,-2.17289 8.60105,-8.16025 11.15123,-15.45071 1.43788,1.65632 2.82501,1.011 3.54606,0.78237 0.39039,-0.24759 1.43978,-0.65227 1.17099,-1.23764 -0.26879,-0.58539 -1.9521,0.99005 -3.12333,-0.99065 0.78081,-3.7138 3.17273,-6.43078 3.12333,-11.38897 0,-2.47587 -5.80721,-3.21864 -8.9793,-4.45657 -1.31765,-0.43329 0.39039,-1.23806 0,-1.73323 -1.17126,0 -1.9518,0.4954 -1.95183,1.23817 0,0 -0.0312,0.0901 -0.0455,0.22117 -1.41216,-1.05244 -3.04078,-2.00372 -4.89167,-2.88406 0,-0.99035 0,-1.48547 1.9518,-2.47581 0.78082,0 0.78082,-1.23817 0,-1.23817 -7.80825,0 -19.72127,1.2958 -27.32857,-2.47582 z m 32.04199,10.55594 c 3.18355,1.02484 7.63773,1.52454 7.5923,4.47983 0.0313,3.14341 -1.52485,5.28913 -2.56987,7.38508 -0.20682,-5.12033 -1.87899,-8.88654 -5.02243,-11.86491 z"
       id="path4575-2-3" />
    <path
       style="display:inline;opacity:1;fill:#450808;fill-opacity:1;fill-rule:nonzero;stroke:#450808;stroke-width:1;stroke-linecap:butt;stroke-linejoin:round;stroke-miterlimit:4;stroke-dasharray:none;stroke-dashoffset:0;stroke-opacity:1;filter:url(#filter5664)"
       d="m 415.46119,272.23944 c -8.59896,0 -17.19792,0.33072 -21.16667,0.99218 -1.32291,0 -1.32291,1.32292 0,1.32292 2.64584,1.32291 1.32292,1.45219 1.32292,2.64582 -5.04272,1.91939 -8.67627,3.654 -11.18587,6.05028 -1.37655,-1.62187 -8.89886,-0.63862 -7.429,0.5643 8.96689,1.32295 -6.90811,3.96875 -6.90811,6.69521 0,1.4111 6.61458,1.79429 6.61458,2.56521 0,0.77094 -6.61458,1.32294 -6.61458,2.64583 0,2.64586 8.99583,6.08542 8.96639,7.3732 -1.02889,1.09347 -4.73306,0.0351 -4.70411,0.5643 0.42254,1.1175 5.20758,1.29125 7.00267,0.52091 4.67696,8.34121 17.76077,13.40726 15.58095,16.67701 -1.32292,0 -1.32292,1.32292 0,1.32292 h 37.04166 c 1.32294,0 1.32294,-1.32292 0,-1.32292 -2.16212,-3.24324 10.69248,-8.25399 15.46521,-16.47494 2.08929,0.52115 5.9903,0.28167 6.37017,-0.72298 0.029,-0.52916 -3.67523,0.52917 -4.70411,-0.5643 -0.0294,-1.28778 8.96638,-4.72734 8.96638,-7.3732 0,-1.32289 -6.61458,-1.87489 -6.61458,-2.64583 0,-0.77092 6.61458,-1.15411 6.61458,-2.56521 0,-2.72646 -15.875,-5.37226 -6.90811,-6.69521 1.36015,-1.11313 -4.97983,-2.03821 -7.0249,-0.88521 -2.49412,-2.23285 -6.02612,-3.89647 -10.84172,-5.72937 0,-1.32291 -1.32292,-1.32291 1.32291,-2.64582 1.32292,0 1.32292,-1.32292 0,-1.32292 -3.96874,-0.66146 -12.5677,-0.99218 -21.16666,-0.99218 z m -32.98815,13.36353 c -1.20081,1.85256 -1.96564,4.09049 -2.37093,6.93703 -1.52442,-1.06225 -5.77569,-1.16046 -7.36182,-2.11047 0,-1.99396 6.27362,-3.19096 9.73275,-4.82656 z m 66.24659,0.4408 c 3.5415,1.4215 8.71421,2.57513 8.71421,4.38576 -1.38742,0.83097 -4.80909,1.01221 -6.66628,1.75495 -0.38354,-2.46094 -1.05003,-4.45638 -2.04793,-6.14071 z m -68.77822,7.81399 c -0.13452,1.36551 -0.19897,2.86152 -0.19897,4.50927 0,1.14207 0.18381,2.23496 0.5116,3.28197 -2.68325,-1.61925 -7.51375,-3.03176 -7.51375,-5.13406 0,-1.79922 5.30538,-1.47931 7.20112,-2.65718 z m 71.06957,0.35502 c 2.2711,0.77814 6.42286,0.71085 6.42286,2.30216 0,1.88728 -3.88612,3.21863 -6.6239,4.64262 0.238,-0.89657 0.37,-1.82589 0.37,-2.79053 0,-1.50826 -0.0568,-2.88396 -0.16896,-4.15425 z"
       id="rect4586-0-6"
       inkscape:connector-curvature="0" />
    <path
       style="opacity:1;fill:#450808;fill-opacity:1;fill-rule:nonzero;stroke:#6b2b2b;stroke-width:1;stroke-linecap:butt;stroke-linejoin:round;stroke-miterlimit:4;stroke-dasharray:none;stroke-dashoffset:0;stroke-opacity:1"
       d="m 394.29453,273.23167 c 7.93749,1.32291 34.39582,1.32291 42.33334,0 -7.93752,-1.32292 -34.39584,-1.32292 -42.33334,0 z"
       id="rect4586-0"
       inkscape:connector-curvature="0"
       sodipodi:nodetypes="ccc" />
    <path
       style="display:inline;fill:none;fill-rule:evenodd;stroke:#8f0d0d;stroke-width:1;stroke-linecap:round;stroke-linejoin:miter;stroke-miterlimit:4;stroke-dasharray:none;stroke-opacity:0.56470588"
       d="m 420.20063,255.27578 c 15.52456,1.32292 26.89753,1.62218 42.4221,0.29926 m 1.14312,2.06237 c -15.52457,1.32291 -28.92945,1.26586 -44.45401,-0.0571 m -0.97823,2.41432 c 15.52456,1.32292 30.58855,0.97047 46.11312,-0.35243 m 0.16099,1.93932 c -15.52457,1.32292 -30.98705,2.24959 -46.51161,0.92667"
       id="path5439-9"
       inkscape:connector-curvature="0"
       sodipodi:nodetypes="cccccccc" />
    <path
       style="display:inline;opacity:0.98000004;fill:url(#linearGradient5201-1);fill-opacity:1;fill-rule:nonzero;stroke:none;stroke-width:1;stroke-linecap:round;stroke-linejoin:round;stroke-miterlimit:4;stroke-dasharray:none;stroke-dashoffset:0;stroke-opacity:0.94117647;paint-order:normal"
       d="m 435.59993,243.29551 c -3.52564,5.03491 -8.83622,33.59344 -10.20699,39.61839 -12.6471,1.79231 -15.67798,-2.84576 -15.43007,-4.76304 1.17487,-5.66676 11.40636,-32.10173 15.00667,-36.82112 4.83976,-2.48111 14.18303,1.21534 10.63039,1.96577 z"
       id="path4936-9"
       inkscape:connector-curvature="0"
       sodipodi:nodetypes="ccccc" />
    <path
       inkscape:connector-curvature="0"
       style="opacity:1;fill:url(#linearGradient5085);fill-opacity:1;fill-rule:nonzero;stroke:url(#linearGradient5115);stroke-width:1;stroke-linecap:round;stroke-linejoin:bevel;stroke-miterlimit:4;stroke-dasharray:none;stroke-dashoffset:0;stroke-opacity:1;paint-order:normal"
       d="m 394.29453,273.23161 c -1.32292,0 -1.32292,1.32292 0,1.32292 2.64583,1.32291 1.32291,1.45219 1.32291,2.64583 -5.04274,1.91937 -8.67627,3.654 -11.18587,6.05028 -1.37654,-1.62187 -8.89889,-0.63865 -7.42902,0.5643 8.96689,1.32292 -6.90809,3.96875 -6.90809,6.69521 0,1.4111 6.61459,1.79427 6.61459,2.56521 0,0.77092 -6.61459,1.32292 -6.61459,2.64583 0,2.64584 8.99581,6.08542 8.96636,7.3732 -1.02888,1.09347 -4.73305,0.0351 -4.7041,0.5643 0.42254,1.11747 5.2076,1.29125 7.00267,0.52092 4.67696,8.3412 17.76079,13.40725 15.58097,16.677 -1.32292,0 -1.32292,1.32292 0,1.32292 h 37.04166 c 1.32292,0 1.32292,-1.32292 0,-1.32292 -2.16214,-3.24324 10.69248,-8.25399 15.46522,-16.47494 2.08928,0.52117 5.99027,0.28165 6.37013,-0.72298 0.029,-0.52919 -3.67522,0.52917 -4.7041,-0.5643 -0.0294,-1.28778 8.96638,-4.72736 8.96638,-7.3732 0,-1.32291 -6.61458,-1.87491 -6.61458,-2.64583 0,-0.77094 6.61458,-1.15411 6.61458,-2.56521 0,-2.72646 -15.875,-5.37229 -6.90811,-6.69521 1.36014,-1.11315 -4.9798,-2.03821 -7.02487,-0.88521 -2.49412,-2.23287 -6.02615,-3.89647 -10.84173,-5.72937 0,-1.32292 -1.32292,-1.32292 1.32292,-2.64583 1.32291,0 1.32291,-1.32292 0,-1.32292 -7.93753,1.32292 -34.39584,1.32292 -42.33333,0 z m -11.82151,12.37134 c -1.20081,1.85258 -1.96561,4.09051 -2.3709,6.93705 -1.52443,-1.06225 -5.7757,-1.16046 -7.36182,-2.11047 0,-1.99396 6.27361,-3.19096 9.73272,-4.82658 z m 66.24661,0.44082 c 3.5415,1.4215 8.71419,2.57513 8.71419,4.38576 -1.3874,0.83097 -4.80907,1.01221 -6.66626,1.75493 -0.38354,-2.46092 -1.05002,-4.45635 -2.04793,-6.14069 z m -68.77822,7.81399 c -0.13452,1.36551 -0.19897,2.86152 -0.19897,4.50927 0,1.14207 0.18381,2.23496 0.5116,3.28197 -2.68325,-1.61925 -7.51374,-3.03176 -7.51374,-5.13406 0,-1.79924 5.30537,-1.47931 7.20111,-2.65718 z m 71.06954,0.35502 c 2.27111,0.77814 6.42287,0.71083 6.42287,2.30216 0,1.88725 -3.8861,3.21863 -6.62387,4.64262 0.23799,-0.89657 0.36999,-1.82589 0.36999,-2.79053 0,-1.50826 -0.0568,-2.88396 -0.16899,-4.15425 z"
       id="path4575-2" />
    <path
       style="fill:none;fill-rule:evenodd;stroke:#8f0d0d;stroke-width:1;stroke-linecap:round;stroke-linejoin:miter;stroke-miterlimit:4;stroke-dasharray:none;stroke-opacity:0.56470588"
       d="m 380.10212,292.54 c 23.8125,1.32292 46.85292,1.71573 70.66544,0.39281 m 0.31853,2.06237 c -23.81252,1.32291 -47.53036,1.07877 -71.34286,-0.24419 m -0.49608,2.41432 c 23.8125,1.32292 48.20991,1.2511 72.02243,-0.0718 m -0.0401,1.93932 c -23.81252,1.32292 -48.10374,1.96896 -71.91624,0.64604"
       id="path5439"
       inkscape:connector-curvature="0"
       sodipodi:nodetypes="cccccccc" />
    <path
       style="display:inline;fill:none;fill-rule:evenodd;stroke:#8f0d0d;stroke-width:1;stroke-linecap:round;stroke-linejoin:miter;stroke-miterlimit:4;stroke-dasharray:none;stroke-opacity:0.56470588"
       d="m 494.53078,235.76119 c -0.0729,-16.01215 -1.21438,-27.4054 -3.92305,-43.18696 m 2.12947,0.26242 c 2.70865,15.78157 3.94426,25.55612 4.01712,41.56829 m 2.05994,-1.46952 c -0.0729,-16.01216 -1.19524,-23.59359 -3.90391,-39.37516 m 2.21494,0.69967 c 2.70867,15.78157 3.83556,21.27764 3.90847,37.28979"
       id="path5439-0"
       inkscape:connector-curvature="0"
       sodipodi:nodetypes="cccccccc" />
    <path
       style="display:inline;fill:none;fill-rule:evenodd;stroke:#8f0d0d;stroke-width:1;stroke-linecap:round;stroke-linejoin:miter;stroke-miterlimit:4;stroke-dasharray:none;stroke-opacity:0.56470588"
       d="m 466.74345,195.41662 c 2.70865,15.78157 4.41199,27.05282 4.48485,43.065 m 0.37096,-44.91578 c 2.70867,15.78158 5.14519,29.6031 5.2181,45.61524"
       id="path5439-0-6"
       inkscape:connector-curvature="0"
       sodipodi:nodetypes="cccc" />
    <path
       style="display:inline;fill:none;fill-rule:evenodd;stroke:#8f0d0d;stroke-width:1;stroke-linecap:round;stroke-linejoin:miter;stroke-miterlimit:4;stroke-dasharray:none;stroke-opacity:0.56470588"
       d="m 390.27868,228.40481 c 1.46817,-15.94486 4.13668,-29.16071 8.2105,-44.64614 m -7.63741,0.74064 c -4.07382,15.48544 -6.60132,24.80946 -8.0695,40.75432"
       id="path5439-0-8"
       inkscape:connector-curvature="0"
       sodipodi:nodetypes="cccc" />
    <path
       style="display:inline;fill:none;fill-rule:evenodd;stroke:#8f0d0d;stroke-width:0.99999994;stroke-linecap:round;stroke-linejoin:miter;stroke-miterlimit:4;stroke-dasharray:none;stroke-opacity:0.56470588"
       d="m 419.48349,224.03316 c 0.11502,-8.27069 1.77874,-13.40974 4.49939,-21.22102 m -1.44455,-0.9312 c -2.72065,7.81126 -5.03708,13.37602 -5.15211,21.64672"
       id="path5439-0-8-7"
       inkscape:connector-curvature="0"
       sodipodi:nodetypes="cccc" />
    <path
       style="display:inline;opacity:0.5;fill:#8f0d0d;fill-opacity:1;fill-rule:evenodd;stroke:#8f0d0d;stroke-width:1;stroke-linecap:round;stroke-linejoin:round;stroke-miterlimit:4;stroke-dasharray:none;stroke-opacity:1"
       d="m 406.19548,229.14714 c 1.46817,-15.94485 3.23334,-24.20722 7.30716,-39.69265 m -11.59887,40.0889 c 1.46817,-15.94488 4.27974,-26.45106 8.35355,-41.9365 0.90218,0.8233 0.87832,0.78669 1.91279,0.88238 -4.0738,15.48544 -6.46108,25.02894 -7.92921,40.97384 -0.82314,-0.7229 -1.51399,-0.65204 -2.33713,0.0803 z m 6.43902,-42.90822 c -4.07383,15.48544 -7.53677,26.77412 -9.00495,42.71898"
       id="path5439-0-8-9"
       inkscape:connector-curvature="0"
       sodipodi:nodetypes="cccccccccc" />
  </g>
</svg>
