<?xml version="1.0" encoding="UTF-8" standalone="no"?>
<!-- Created with Inkscape (http://www.inkscape.org/) -->

<svg
   xmlns:dc="http://purl.org/dc/elements/1.1/"
   xmlns:cc="http://creativecommons.org/ns#"
   xmlns:rdf="http://www.w3.org/1999/02/22-rdf-syntax-ns#"
   xmlns:svg="http://www.w3.org/2000/svg"
   xmlns="http://www.w3.org/2000/svg"
   xmlns:sodipodi="http://sodipodi.sourceforge.net/DTD/sodipodi-0.dtd"
   xmlns:inkscape="http://www.inkscape.org/namespaces/inkscape"
   width="767.11414"
   height="381.12024"
   id="svg1341"
   sodipodi:version="0.32"
   inkscape:version="0.92.1 r15371"
   sodipodi:docname="gpl-v3-logo_st.svg"
   inkscape:output_extension="org.inkscape.output.svg.inkscape"
   version="1.1"
   viewBox="0 0 719.16948 357.30023">
  <sodipodi:namedview
     id="base"
     pagecolor="#ffffff"
     bordercolor="#666666"
     borderopacity="1.0"
     inkscape:pageopacity="0.0"
     inkscape:pageshadow="2"
     inkscape:zoom="0.56729519"
     inkscape:cx="356.87365"
     inkscape:cy="313.42385"
     inkscape:document-units="px"
     inkscape:current-layer="layer1"
     inkscape:window-width="1198"
     inkscape:window-height="698"
     inkscape:window-x="-25"
     inkscape:window-y="47"
     showgrid="false"
     inkscape:window-maximized="0"
     fit-margin-top="0"
     fit-margin-left="0"
     fit-margin-right="0"
     fit-margin-bottom="0" />
  <style
     id="style4558">
    .text {
    stroke-linejoin:miter;
    fill-opacity:0.94117647;
    fill-rule:evenodd;
    stroke:none;
    stroke-linecap:butt;
    stroke-width:1.00000003pt;
    fill:#ff0000;
    }
  </style>
  <defs
     id="defs1343">
    <inkscape:perspective
       id="perspective79"
       inkscape:persp3d-origin="372.04723 : 350.7874 : 1"
       inkscape:vp_z="744.09445 : 526.1811 : 1"
       inkscape:vp_y="0 : 999.99999 : 0"
       inkscape:vp_x="0 : 526.1811 : 1"
       sodipodi:type="inkscape:persp3d" />
  </defs>
  <metadata
     id="metadata1346">
    <rdf:RDF>
      <cc:Work
         rdf:about="">
        <dc:format>image/svg+xml</dc:format>
        <dc:type
           rdf:resource="http://purl.org/dc/dcmitype/StillImage" />
        <dc:title />
      </cc:Work>
    </rdf:RDF>
  </metadata>
  <g
     transform="translate(-14.225241,-495.60205)"
     id="layer1"
     inkscape:groupmode="layer"
     inkscape:label="Layer 1">
    <g
       id="g68"
       style="fill:#000000;fill-opacity:0.94117647;fill-rule:evenodd;stroke:none;stroke-width:1.00000003pt;stroke-linecap:butt;stroke-linejoin:miter"
       transform="matrix(1.705222,0,0,1.705222,354.63092,711.9798)">
      <path
         style="fill:#000000;fill-opacity:0.94117647"
         id="path70"
         d="M 3.86,0 C 3.86,0 3.85,0 3.85,0 2.91,0 2.08,0.31 1.3,0.94 0.72,1.4 0.32,2.02 0,2.71 c 0,0 0.04,0 0.04,0 C 0.36,2.02 0.76,1.4 1.33,0.94 2.11,0.31 2.94,0.01 3.86,0 Z"
         inkscape:connector-curvature="0" />
    </g>
    <path
       style="fill:#3489a1;fill-opacity:1;fill-rule:evenodd;stroke:none;stroke-width:1.00000003pt;stroke-linecap:butt;stroke-linejoin:miter"
       d="m 94.702226,506.53526 c 2e-5,-10e-6 -59.30973,258.76738 -59.30973,258.76738 0.01705,0 0.01919,0 0.05329,0 0,0 274.380814,0 274.380814,0 1e-5,0 142.70573,0 142.70573,0 -17.00107,-1.48353 -30.42327,-7.45182 -38.42076,-18.33112 -1.48353,-2.01219 -2.70918,-4.17993 -3.78347,-6.44788 -0.68207,-1.6711 -1.32368,-3.35715 -1.97167,-5.06237 -1.70524,-5.42261 -2.38517,-11.43991 -2.07824,-17.85154 0.85262,-17.87074 9.23805,-39.12802 23.76654,-61.38798 15.43225,-23.65656 37.79837,-48.45089 65.49116,-71.45944 6.20699,-5.15319 12.62503,-10.24199 19.34361,-15.18714 8.30441,-6.10979 16.67281,-11.73661 25.04545,-16.99893 30.84745,-19.42077 61.61817,-33.0101 88.88467,-39.91284 -26.05577,8.50053 -55.32805,22.9314 -84.24861,42.57726 -1.04016,0.70255 -2.06758,1.42215 -3.09072,2.13152 -16.04613,11.11805 -30.58314,22.92586 -43.26998,34.85046 -40.82303,38.38457 -62.40046,78.15884 -52.59544,101.46069 0.69916,1.6029 1.53256,3.13335 2.50455,4.58279 10.53825,15.50047 36.65587,18.17979 69.75422,9.85831 2.25089,-0.56275 4.50178,-1.20004 6.82088,-1.86508 10.57238,-3.05237 21.797,-7.17473 33.3584,-12.25628 2.77949,-1.22777 5.58887,-2.48963 8.41953,-3.83676 0.28988,-0.13641 0.56273,-0.27283 0.85261,-0.4263 36.49173,-18.13162 64.53625,-38.99458 70.60684,-51.52967 1.33008,-2.72662 1.6498,-5.0513 0.74603,-6.87417 -4.33124,-8.78188 -34.63945,-2.849 -71.35287,13.0556 -2.95003,1.2789 -5.93417,2.59492 -8.95241,3.99661 2.45552,-2.27986 5.01123,-4.56828 7.6202,-6.82089 4.16075,-3.58438 8.46856,-7.08945 13.0556,-10.55104 7.179,-5.43627 14.43685,-10.35071 21.58173,-14.70754 33.45643,-25.24067 50.3701,-49.11722 46.8403,-57.97753 -0.66505,-1.66943 -2.08037,-2.81789 -4.26306,-3.51703 -6.97438,-2.21847 -19.70383,0.42929 -35.17019,6.7676 -12.75504,5.23164 -27.40504,12.9908 -42.25752,22.64748 0,0 -2.02495,1.3322 -2.02495,1.3322 2e-5,0 -0.37302,0.21314 -0.37302,0.21314 2e-5,2e-5 -7.14061,4.74265 -7.14061,4.74265 -2e-5,-10e-6 4.10319,-7.51363 4.10319,-7.51363 6.08765,-11.14364 16.0035,-22.77067 28.3493,-33.57154 9.05473,-7.89689 19.39903,-15.33762 30.53413,-21.84816 4.21191,-2.46573 8.4174,-4.75586 12.62929,-6.82088 4.31422,-2.10766 8.63055,-3.98085 12.84246,-5.64855 12.23682,-4.83935 23.91781,-7.77981 34.10442,-8.5794 -0.92767,-10e-6 -28.61574,0 -28.61574,0 10e-6,-10e-6 -96.45159,0 -96.45159,0 10e-6,-10e-6 -425.29295,0 -425.29295,0 0,-10e-6 -33.731414,0 -33.731414,0 z m 305.980714,0.37302 c -1.67109,25.505 3.27403,62.86215 14.49439,104.33824 1.99509,7.38021 4.16712,14.89085 6.55444,22.48762 1.48356,4.69104 3.01399,9.30881 4.58278,13.85492 -0.9208,1.35396 -1.84804,2.69937 -2.7177,4.0499 -13.99985,21.45508 -22.1828,41.73104 -24.24611,59.36303 -5.91714,-19.81468 -10.37201,-41.5183 -12.89574,-64.53198 -0.71619,-6.5941 -1.27679,-13.11442 -1.65194,-19.55675 -2.76247,-46.79639 3.34649,-89.2172 15.87988,-120.00498 z m -279.3899,33.19854 c 0.31934,-0.008 0.63414,0 0.95918,0 0,-2e-5 63.03991,0 63.03991,0 5.38851,-2e-5 9.55564,1.00991 12.52272,3.03742 2.95002,2.03946 4.05631,4.67743 3.35715,7.88665 2e-5,2e-5 -7.51363,33.94456 -7.51363,33.94456 0,3e-5 -22.22116,0 -22.22116,0 2e-5,3e-5 7.30048,-33.03866 7.30048,-33.03866 -2e-5,0 -55.63285,0 -55.63285,0 -2e-5,0 -20.08965,90.80305 -20.08965,90.80305 2e-5,0 -7.247194,32.87881 -7.247194,32.87881 0,3e-5 55.579574,0 55.579574,0 0,3e-5 0.0533,-0.21316 0.0533,-0.21316 0,2e-5 11.13722,-50.30404 11.13722,-50.30404 0,-2e-5 -26.1112,0 -26.1112,0 0,-2e-5 2.50454,-11.35038 2.50454,-11.35038 -1e-5,-2e-5 48.33238,0 48.33238,0 0,-2e-5 -13.85493,62.77348 -13.85493,62.77348 -0.18757,0.89352 -0.51582,1.70308 -0.95919,2.50453 -1.14249,2.08037 -3.13547,3.86234 -5.91498,5.32883 -3.85378,2.02923 -8.46643,3.03742 -13.85493,3.03742 0,2e-5 -62.986624,0 -62.986624,0 -5.38852,2e-5 -9.55564,-1.00821 -12.52272,-3.03742 -2.95001,-2.0292 -4.07335,-4.62073 -3.35715,-7.83336 10e-6,-2e-5 27.763134,-125.49366 27.763134,-125.49366 0.71618,-3.20921 2.95005,-5.84721 6.82089,-7.88665 0.13642,-0.0733 0.28989,-0.0899 0.4263,-0.15986 3.53302,-1.7697 7.67937,-2.76443 12.46944,-2.87756 z m 98.79628,0 c -2e-5,-2e-5 79.34608,0 79.34608,0 5.32031,-2e-5 9.50235,1.00991 12.46943,3.03742 2.98417,2.03946 4.12666,4.67743 3.41045,7.88665 2e-5,2e-5 -14.81411,66.92995 -14.81411,66.92995 -0.69912,3.18874 -2.98627,5.7905 -6.87417,7.83336 -3.8879,2.04966 -8.4643,3.09071 -13.80164,3.09071 -2e-5,0 -57.6578,0 -57.6578,0 0,0 -11.13723,50.25075 -11.13723,50.25075 0,2e-5 -1.8118,8.25967 -1.8118,8.25967 1e-5,2e-5 -21.74158,0 -21.74158,0 0,2e-5 1.65193,-7.46034 1.65193,-7.46034 0,2e-5 30.96044,-139.82817 30.96044,-139.82817 z m 109.61377,0 c -10e-6,-2e-5 21.74158,0 21.74158,0 2e-5,-2e-5 -24.61914,111.21241 -24.61914,111.21241 2e-5,2e-5 -5.3821,24.29942 -5.3821,24.29942 0,3e-5 52.00926,0 52.00926,0 0.54568,3.98854 1.18299,7.90582 1.86508,11.77668 -2e-5,2e-5 -78.22705,0 -78.22705,0 2e-5,2e-5 6.18143,-27.92301 6.18143,-27.92301 2e-5,0 26.43094,-119.3655 26.43094,-119.3655 z m -90.48332,11.82997 c 2e-5,0 -14.4411,65.11814 -14.4411,65.11814 0,-2e-5 54.19408,0 54.19408,0 -1e-5,-2e-5 14.3878,-65.11814 14.3878,-65.11814 2e-5,0 -54.14078,0 -54.14078,0 z m -45.5614,145.68987 c 0.21267,-0.007 0.42524,0 0.63947,0 2.52373,2e-5 4.72772,0.44336 6.50115,1.27891 1.8928,0.88671 3.24632,2.204 3.99662,3.94333 0.73325,1.68819 0.92508,3.60441 0.53287,5.70184 0,10e-6 -0.15985,0.79933 -0.15985,0.79933 1e-5,-3e-5 -6.23472,0 -6.23472,0 -2e-5,-3e-5 0.0533,-0.74605 0.0533,-0.74605 0.16118,-1.46543 -0.0205,-2.61779 -0.58618,-3.41043 -0.0737,-0.0994 -0.18053,-0.23063 -0.26644,-0.31973 -0.14068,-0.14363 -0.35198,-0.3078 -0.53287,-0.42631 -0.87238,-0.5495 -2.23703,-0.85262 -3.99662,-0.85262 -2.33615,2e-5 -4.08187,0.40712 -5.27552,1.22564 -1.15956,0.80146 -1.8928,1.6967 -2.13153,2.77098 -0.23875,1.09134 0.15346,1.66472 0.42631,1.97166 0.008,0.008 0.0429,0.0438 0.0533,0.0533 0.34552,0.29445 1.54536,0.98476 5.27553,1.86508 3.37632,0.81851 5.61232,1.55389 6.87418,2.18482 1.90987,0.97196 3.24419,2.2317 3.94334,3.78346 0.69911,1.53472 0.8526,3.33157 0.4263,5.27553 -0.4263,1.89279 -1.39189,3.63852 -2.82428,5.27554 -1.41532,1.637 -3.21647,2.93297 -5.38211,3.83673 -2.1486,0.88672 -4.50604,1.38549 -6.92746,1.38549 -3.0694,-10e-6 -5.53343,-0.46467 -7.46034,-1.38549 -2.01217,-0.95491 -3.46374,-2.4619 -4.31634,-4.42291 -0.81851,-1.90986 -0.9933,-4.07762 -0.53289,-6.44786 0,-3e-5 0.15987,-0.74605 0.15987,-0.74605 0,0 6.12814,0 6.12814,0 0,0 -0.0533,0.74605 -0.0533,0.74605 -0.15348,1.41532 -0.002,2.55782 0.37302,3.41043 0.35809,0.81853 1.04019,1.49633 2.13152,2.02496 1.15954,0.5627 2.60898,0.8526 4.26305,0.8526 1.48355,-1e-5 2.83921,-0.24939 4.04991,-0.69273 1.19365,-0.4263 2.14218,-0.98904 2.82427,-1.70523 0.66502,-0.71622 1.05511,-1.47288 1.22563,-2.2914 0.17052,-0.73324 0.13002,-1.3535 -0.15987,-1.86508 -0.32399,-0.54564 -0.96558,-1.02953 -1.97165,-1.43878 0,-10e-6 -5.22226,-1.54536 -5.22226,-1.54536 -2.91592,-0.73323 -4.87905,-1.43238 -6.02155,-2.13152 -1.55177,-0.92081 -2.67081,-2.10169 -3.25059,-3.51702 -0.57977,-1.39831 -0.64158,-2.94791 -0.26643,-4.63608 0.3922,-1.80753 1.26399,-3.52767 2.61111,-5.06237 1.3642,-1.55177 3.12482,-2.76885 5.22225,-3.57031 1.85443,-0.6954 3.80596,-1.10321 5.86169,-1.17234 z m 55.9526,0.10658 c 0.33725,-0.0263 0.65436,0 1.01247,0 1e-5,0 3.83675,0.4263 3.83675,0.4263 -1e-5,0 1.27891,0.10658 1.27891,0.10658 2e-5,10e-6 -1.86508,4.74264 -1.86508,4.74264 -1e-5,2e-5 -0.37302,0.74604 -0.37302,0.74604 0,-2e-5 -2.93084,-0.26644 -2.93084,-0.26644 -0.86541,0 -1.50113,0.13352 -1.91838,0.4263 -0.0277,0.0209 -0.081,0.0842 -0.10658,0.10658 -0.0559,0.049 -0.14991,0.13458 -0.21315,0.21316 -0.25659,0.33651 -0.56912,0.93786 -0.79932,2.02495 -2e-5,0 -0.11084,0.4604 -0.21315,0.85261 1.34713,1e-5 4.58277,0 4.58277,0 0,1e-5 -1.17233,5.27552 -1.17233,5.27552 0,-10e-6 -3.35076,0 -4.4762,0 -0.34106,1.53469 -4.5295,20.3028 -4.5295,20.3028 -2e-5,-2e-5 -6.18143,0 -6.18143,0 -2e-5,-2e-5 4.01793,-18.03485 4.5295,-20.3028 -1.04021,-10e-6 -3.57031,0 -3.57031,0 0,-10e-6 1.17234,-5.27552 1.17234,-5.27552 1e-5,1e-5 2.54504,0 3.51701,0 0.17052,-0.73324 0.4263,-1.65194 0.4263,-1.65194 0.37516,-1.70522 0.76735,-2.93085 1.27891,-3.78346 0.69917,-1.17659 1.68606,-2.16137 2.93087,-2.87756 1.02527,-0.59575 2.32198,-0.95194 3.78346,-1.06576 z m 14.76082,0.26644 c -2e-5,-10e-6 -1.6157,7.27064 -2.02495,9.11228 1.19364,1e-5 3.99661,0 3.99661,0 0,1e-5 -1.17233,5.27552 -1.17233,5.27552 -2e-5,-10e-6 -2.93939,0 -3.99662,0 -0.32401,1.46647 -2.87756,12.84246 -2.87756,12.84246 2e-5,-2e-5 -0.21316,1.36631 -0.21316,1.75851 2.8e-4,0.0131 -10e-4,0.0437 0,0.0533 8.4e-4,0.004 -10e-4,0.05 0,0.0533 0.002,0.003 0.0512,-0.002 0.0533,0 0,-2e-5 0.63947,0.0533 0.63947,0.0533 0,0 2.93085,-0.21315 2.93085,-0.21315 0,0 -0.31973,4.74264 -0.31973,4.74264 2e-5,0 0.0533,0.85261 0.0533,0.85261 -2e-5,-2e-5 -4.20978,0.4796 -4.20978,0.4796 -1.6711,-2e-5 -2.89675,-0.27283 -3.78346,-0.8526 -0.93785,-0.61392 -1.48354,-1.42814 -1.70522,-2.45126 -0.0341,-0.18759 -0.10658,-0.46042 -0.10658,-0.85261 0,-0.76736 0.14495,-2.06545 0.63946,-4.31634 2e-5,2e-5 2.24023,-10.03524 2.7177,-12.14972 -0.80143,-10e-6 -2.93085,0 -2.93085,0 2e-5,-10e-6 1.17233,-5.27552 1.17233,-5.27552 -2e-5,1e-5 2.07824,0 2.93086,0 0.27281,-1.22775 1.22562,-5.4354 1.22562,-5.4354 0,2e-5 4.95581,-2.61112 4.95581,-2.61112 -10e-6,2e-5 2.02495,-1.06576 2.02495,-1.06576 z m -196.366934,0.21315 c 2e-5,0 23.97968,0 23.97968,0 0,0 -1.3322,5.96828 -1.3322,5.96828 0,2e-5 -15.99711,0 -17.53181,0 -0.27282,1.21073 -1.36631,6.11322 -1.75851,7.88665 2.2168,0 15.18713,0 15.18713,0 0,0 -1.33221,5.96826 -1.33221,5.96826 -1e-5,0 -13.65242,0 -15.18713,0 -0.32399,1.48355 -3.25058,14.65426 -3.25058,14.65426 2e-5,-2e-5 -6.44786,0 -6.44786,0 10e-6,-2e-5 7.67349,-34.47745 7.67349,-34.47745 z m 32.132764,8.41954 c 0.24067,-0.0296 0.50358,0 0.74604,0 1.5347,0 2.95217,0.4668 4.31635,1.43877 0,2e-5 0.8526,0.58617 0.8526,0.58617 0,0 -3.30386,5.4354 -3.30386,5.4354 0,-2e-5 -0.90589,-0.63946 -0.90589,-0.63946 -0.66504,-0.42629 -1.38123,-0.63946 -2.131534,-0.63946 -0.64799,2e-5 -1.25121,0.2302 -1.86509,0.63946 -0.64797,0.4263 -1.1894,0.99115 -1.59864,1.75851 -0.7162,1.31304 -1.24056,2.78377 -1.59865,4.36963 0,10e-6 -2.87756,13.10889 -2.87756,13.10889 0,-2e-5 -6.18143,0 -6.18143,0 0,-2e-5 5.70184,-25.57832 5.70184,-25.57832 2e-5,1e-5 5.75512,0 5.75512,0 0,1e-5 -0.19824,0.77588 -0.26645,1.06576 0.27284,-0.20461 0.56059,-0.48599 0.79933,-0.63946 0.82597,-0.4929 1.69837,-0.80035 2.557824,-0.90589 z m 18.33114,0 c 0.37219,-0.0282 0.73859,0 1.11906,0 3.47866,0 6.11108,1.21922 7.83335,3.62359 1.07428,1.55174 1.65195,3.47012 1.65195,5.75512 0,1.26185 -0.15561,2.61965 -0.47959,4.10319 0,0 -0.47961,1.86509 -0.47961,1.86509 0,-2e-5 -15.63261,0 -17.37194,0 -0.0341,0.35808 -0.0533,0.74177 -0.0533,1.06576 0,1.33009 0.27283,2.37665 0.85261,3.14401 0.2755,0.37513 0.5949,0.71299 0.95919,0.95918 0.68678,0.44789 1.57334,0.69275 2.61112,0.69275 1.26188,-2e-5 2.37025,-0.34745 3.41044,-1.01248 0.98905,-0.63093 1.93544,-1.63914 2.77099,-3.03742 0,-3e-5 6.60773,0 6.60773,0 0,-3e-5 -0.58616,1.27891 -0.58616,1.27891 -1.26187,2.55785 -3.02251,4.55294 -5.22225,5.96828 -2.19973,1.41533 -4.82791,2.1848 -7.72679,2.1848 -3.76854,-1e-5 -6.57363,-1.21922 -8.31296,-3.62358 -1.72226,-2.35323 -2.09315,-5.60593 -1.17233,-9.69846 0.92083,-4.16073 2.7582,-7.48591 5.43539,-9.80502 2.39958,-2.08062 5.12245,-3.23468 8.15309,-3.46372 z m 27.76315,0 c 0.37218,-0.0282 0.73857,0 1.11904,0 3.47867,0 6.1111,1.21922 7.83337,3.62359 1.07429,1.55174 1.65193,3.47012 1.65193,5.75512 0,1.2448 -0.1556,2.58341 -0.4796,4.0499 0,2e-5 -0.47958,1.91838 -0.47958,1.91838 0,-2e-5 -15.63263,0 -17.37195,0 -0.0171,0.2387 -0.0362,0.45402 -0.0533,0.69275 -0.0128,0.0895 0.006,0.22541 0,0.31972 -5e-4,0.0154 0,0.0384 0,0.0533 0,0.2558 0.0362,0.5073 0.0533,0.74604 0.0852,0.97196 0.33892,1.78409 0.79932,2.39797 0.0877,0.11936 0.17008,0.2667 0.26644,0.37302 0.78101,0.83554 1.8864,1.27891 3.30387,1.27891 1.26188,-2e-5 2.38731,-0.34745 3.41045,-1.01248 0.98904,-0.63093 1.93542,-1.63914 2.77098,-3.03742 0,-3e-5 6.66102,0 6.66102,0 -1e-5,-3e-5 -0.63946,1.27891 -0.63946,1.27891 -1.26186,2.55785 -3.0225,4.55294 -5.22224,5.96828 -2.19974,1.41533 -4.82791,2.1848 -7.72678,2.1848 -3.76853,-10e-6 -6.57363,-1.21922 -8.31296,-3.62358 -1.12545,-1.53472 -1.65194,-3.48931 -1.65194,-5.80841 0,-0.35812 0.0192,-0.74391 0.0533,-1.11905 0.0682,-0.88671 0.20463,-1.78196 0.42631,-2.771 0.92084,-4.14368 2.70491,-7.48591 5.3821,-9.80502 2.39957,-2.08062 5.17575,-3.23468 8.20639,-3.46372 z m 75.61591,0 c 0.38084,-0.0293 0.73112,0 1.11905,0 3.54687,0 6.2731,1.20004 8.04652,3.5703 1.7564,2.37023 2.18269,5.56754 1.27891,9.59186 -0.69913,3.13763 -1.70947,5.672 -3.0907,7.51365 -1.38126,1.84165 -3.14188,3.34649 -5.22226,4.36962 -2.06328,1.02314 -4.24813,1.54535 -6.44786,1.54535 -3.61507,-1e-5 -6.30719,-1.23628 -8.04652,-3.62358 -1.12546,-1.51764 -1.70522,-3.47226 -1.70522,-5.80841 2e-5,-1.26187 0.13856,-2.6026 0.4796,-4.10319 1.02315,-4.57001 3.11202,-8.05078 6.18143,-10.28462 2.25301,-1.62634 4.74114,-2.56606 7.40705,-2.77098 z m 93.62733,0 c 0.4496,-0.0278 0.86593,0 1.3322,0 2.14859,0 3.83675,0.2174 5.11567,0.74602 1.36418,0.54569 2.33189,1.31729 2.87756,2.23811 0.52864,0.86963 0.79933,1.93756 0.79933,3.25057 10e-6,2e-5 -0.63948,3.89004 -0.63948,3.89004 3e-5,0 -1.17232,5.27554 -1.17232,5.27554 -1.00611,4.50176 -1.22776,6.18995 -1.27893,6.82089 -0.0511,0.85262 0.0277,1.6839 0.26645,2.45125 2e-5,-2e-5 0.4263,1.38549 0.4263,1.38549 2e-5,-2e-5 -6.288,0 -6.288,0 -2e-5,-2e-5 -0.26645,-0.79933 -0.26645,-0.79933 -0.10231,-0.37512 -0.0725,-0.8526 -0.10657,-1.27891 -1.19365,0.73325 -2.38944,1.38336 -3.46373,1.75851 -1.58584,0.54569 -3.23139,0.8526 -4.90251,0.8526 -2.89886,-1e-5 -5.04532,-0.75454 -6.3413,-2.2381 -0.98902,-1.09133 -1.43877,-2.42567 -1.43877,-3.94332 -2e-5,-0.57977 0.0767,-1.18087 0.21314,-1.81179 0.28988,-1.29597 0.81638,-2.49603 1.65194,-3.57032 0.81851,-1.05726 1.78623,-1.92689 2.87756,-2.55782 1.05726,-0.63092 2.23598,-1.07855 3.46374,-1.3855 -2e-5,0 3.78346,-0.63946 3.78346,-0.63946 2.91594,-0.34106 5.09221,-0.76521 6.66102,-1.22562 0.0341,-0.17052 0.10657,-0.37302 0.10657,-0.37302 0.24726,-1.09718 0.21632,-1.92188 -0.0533,-2.34468 -0.0198,-0.0273 -0.0842,-0.0831 -0.10657,-0.10658 -0.0576,-0.0613 -0.14603,-0.15779 -0.21316,-0.21315 -0.64135,-0.50753 -1.73506,-0.74603 -3.19728,-0.74603 -1.65407,0 -2.87756,0.27071 -3.73018,0.79931 -0.83555,0.52863 -1.60931,1.49634 -2.29139,2.87756 -1e-5,-10e-6 -6.44787,0 -6.44787,0 2e-5,-10e-6 0.58617,-1.27891 0.58617,-1.27891 0.76733,-1.77345 1.68178,-3.24418 2.82428,-4.36963 1.1425,-1.12547 2.68572,-1.99724 4.4762,-2.61111 1.37216,-0.45297 2.8705,-0.75354 4.47621,-0.85261 z m 27.01711,0 c 0.24046,-0.0296 0.50356,0 0.74603,0 1.55173,0 3.00545,0.4668 4.36963,1.43877 2e-5,2e-5 0.79932,0.58617 0.79932,0.58617 10e-6,0 -3.30386,5.4354 -3.30386,5.4354 10e-6,-2e-5 -0.9059,-0.63946 -0.9059,-0.63946 -0.66503,-0.42629 -1.34501,-0.63946 -2.07824,-0.63946 -0.64801,2e-5 -1.28744,0.2302 -1.91839,0.63946 -0.64797,0.4263 -1.11904,0.99115 -1.54534,1.75851 -0.69916,1.31304 -1.24056,2.78377 -1.59865,4.36963 -2e-5,10e-6 -2.93085,13.10889 -2.93085,13.10889 2e-5,-2e-5 -6.18142,0 -6.18142,0 0,-2e-5 5.70182,-25.57832 5.70182,-25.57832 -10e-6,1e-5 5.75512,0 5.75512,0 0,1e-5 -0.14494,0.77588 -0.21314,1.06576 0.27282,-0.20461 0.54353,-0.48599 0.79932,-0.63946 0.81263,-0.4929 1.64571,-0.80035 2.50455,-0.90589 z m 18.27783,0 c 0.37185,-0.0282 0.73859,0 1.11906,0 3.47866,0 6.12813,1.21922 7.83337,3.62359 1.09135,1.55174 1.65193,3.47012 1.65193,5.75512 -2e-5,1.26185 -0.2089,2.61965 -0.53289,4.10319 0,0 -0.4263,1.86509 -0.4263,1.86509 -10e-6,-2e-5 -15.64968,0 -17.37194,0 -0.0341,0.35808 -0.10659,0.74177 -0.10659,1.06576 0,1.33009 0.28989,2.37665 0.85262,3.14401 0.0877,0.11936 0.223,0.2667 0.31972,0.37302 0.056,0.0597 0.15412,0.15773 0.21316,0.21314 0.76235,0.69302 1.79981,1.06577 3.0907,1.06577 1.26189,-2e-5 2.37027,-0.34745 3.41045,-1.01248 0.98905,-0.63093 1.91839,-1.63914 2.77099,-3.03742 -2e-5,-3e-5 6.66102,0 6.66102,0 0,-3e-5 -0.63946,1.27891 -0.63946,1.27891 -1.26187,2.55785 -3.03955,4.55294 -5.22224,5.96828 -2.21677,1.41533 -4.81085,2.1848 -7.72679,2.1848 -3.76851,-1e-5 -6.52034,-1.21922 -8.25966,-3.62358 -1.7223,-2.35323 -2.1294,-5.60593 -1.22563,-9.69846 0.92081,-4.16073 2.70491,-7.48591 5.38211,-9.80502 2.41475,-2.08062 5.17852,-3.23468 8.20637,-3.46372 z m -93.3076,0.47959 c 2e-5,1e-5 6.34131,0 6.34131,0 2e-5,1e-5 0.78226,15.17861 0.79931,15.40027 0.25578,-0.54356 0.45424,-1.00087 0.47961,-1.06575 1e-5,1e-5 6.98074,-14.33452 6.98074,-14.33452 2e-5,1e-5 5.80841,0 5.80841,0 -10e-6,1e-5 0.53288,14.99528 0.53288,15.08054 0.17055,-0.30691 7.93994,-15.08054 7.93994,-15.08054 -2e-5,1e-5 6.28801,0 6.28801,0 -10e-6,1e-5 -13.85493,25.57832 -13.85493,25.57832 2e-5,-2e-5 -5.70183,0 -5.70183,0 0,-2e-5 -0.55206,-13.86984 -0.58617,-14.65426 -2.35323,4.8258 -7.14063,14.65426 -7.14063,14.65426 0,-2e-5 -5.86168,0 -5.86168,0 0,-2e-5 -2.02497,-25.57832 -2.02497,-25.57832 z m -148.88715,4.84922 c -1.46893,0.062 -2.80295,0.59149 -4.04989,1.59864 -0.98902,0.78441 -1.65621,1.86084 -2.18483,3.03743 0,2e-5 10.49777,0 10.49777,0 0.0171,-0.18756 0.0533,-0.41564 0.0533,-0.58617 -2e-5,-0.97195 -0.17266,-1.72653 -0.47959,-2.2381 -0.75028,-1.22777 -1.86295,-1.8118 -3.51702,-1.8118 -0.0991,0 -0.2218,-0.004 -0.31973,0 z m 27.76313,0 c -1.46892,0.062 -2.80295,0.59149 -4.0499,1.59864 -0.98904,0.78441 -1.63913,1.86084 -2.1848,3.03743 0,2e-5 10.49776,0 10.49776,0 0.017,-0.18756 0.0533,-0.41564 0.0533,-0.58617 -1e-5,-0.97195 -0.1556,-1.72653 -0.4796,-2.2381 -0.14894,-0.24939 -0.35043,-0.49739 -0.53288,-0.69274 -0.71199,-0.73572 -1.6919,-1.11906 -2.98413,-1.11906 -0.0991,0 -0.2218,-0.004 -0.31974,0 z m 214.75136,0 c -1.51056,0.0465 -2.92125,0.55794 -4.20977,1.59864 -0.97198,0.78441 -1.63915,1.86084 -2.18482,3.03743 2e-5,2e-5 10.44449,0 10.44449,0 0.017,-0.18756 0.0533,-0.41564 0.0533,-0.58617 -1e-5,-0.97195 -0.1556,-1.72653 -0.4796,-2.2381 -0.73324,-1.21072 -1.86296,-1.79474 -3.51702,-1.8118 -0.049,5.3e-4 -0.0578,-0.002 -0.10657,0 z m -139.61502,0.10658 c -1.40963,0.16739 -2.72036,0.81051 -3.94333,1.91837 -1.46648,1.33009 -2.53012,3.41897 -3.14399,6.18143 -0.25579,1.15955 -0.37303,2.15071 -0.37303,3.03742 2e-5,1.2107 0.23233,2.16137 0.69275,2.87756 0.12257,0.18384 0.28516,0.37811 0.42631,0.53289 0.75804,0.80488 1.81659,1.22563 3.144,1.22563 1.72226,-2e-5 3.23992,-0.64159 4.68935,-1.97167 1.46652,-1.34714 2.51307,-3.45734 3.144,-6.288 0.5798,-2.59195 0.49878,-4.52736 -0.31972,-5.75512 -0.7844,-1.19366 -1.93116,-1.75851 -3.51701,-1.75851 -0.26911,0 -0.5383,-0.031 -0.79933,0 z m 96.29173,9.32543 c -1.44941,0.39218 -3.07367,0.72258 -5.22224,1.01248 -1.60289,0.23874 -2.74541,0.49024 -3.41045,0.74603 -0.57976,0.23872 -1.04658,0.56911 -1.43878,1.01248 -0.37516,0.42627 -0.62666,0.87392 -0.74602,1.38549 -0.0341,0.20464 -0.0533,0.41564 -0.0533,0.58617 0,0.0138 -3.1e-4,0.0396 0,0.0533 0.002,0.0406 -0.004,0.1207 0,0.15985 0.0107,0.0774 0.0322,0.1944 0.0533,0.26645 0.008,0.0237 0.0445,0.0834 0.0533,0.10657 0.0187,0.0458 0.0301,0.11611 0.0533,0.15987 0.0243,0.0433 0.0779,0.11849 0.10658,0.15986 0.0446,0.0614 0.1055,0.1556 0.15987,0.21315 0.42631,0.47746 1.27678,0.69275 2.50454,0.69275 1.34715,10e-6 2.6431,-0.25578 3.83675,-0.85261 1.17662,-0.57977 2.12513,-1.44518 2.82427,-2.45126 0.51159,-0.7162 0.92083,-1.8182 1.27892,-3.25057 z"
       id="path74"
       inkscape:connector-curvature="0" />
    <g
       id="g80"
       style="fill:#000000;fill-opacity:0.94117647;fill-rule:evenodd;stroke:none;stroke-width:1.00000003pt;stroke-linecap:butt;stroke-linejoin:miter"
       transform="matrix(1.705222,0,0,1.705222,361.21302,711.9798)">
      <path
         style="fill:#000000;fill-opacity:0.94117647"
         id="path82"
         d="M 0.03,0 C 0.02,0 0.01,0 0,0 c 0.97,0.01 1.61,0.34 2.04,1.05 0.19,0.3 0.29,0.75 0.29,1.32 0,0.1 -0.02,0.23 -0.03,0.34 0,0 0.04,0 0.04,0 C 2.34,2.6 2.36,2.47 2.36,2.37 2.36,1.8 2.27,1.35 2.08,1.05 1.65,0.33 1,0 0.03,0 Z"
         inkscape:connector-curvature="0" />
    </g>
    <path
       style="fill:#3489a1;fill-opacity:1;fill-rule:evenodd;stroke:none;stroke-width:1.70522207pt;stroke-linecap:butt;stroke-linejoin:miter"
       d="m 14.225245,852.90119 c 0,0 12.720956,0 12.720956,0 0,0 5.712494,-23.87311 5.712494,-23.87311 0,0 20.66729,0 20.66729,0 0,0 2.660147,-10.23133 2.660147,-10.23133 0,0 -20.752552,0 -20.752552,0 0,0 3.444548,-15.347 3.444548,-15.347 0,0 22.082625,0 22.082625,0 0,0 2.660147,-11.93655 2.660147,-11.93655 0,0 -34.87179,0 -34.87179,0 0,0 -14.323865,61.38799 -14.323865,61.38799 z"
       class="text"
       id="path86"
       inkscape:connector-curvature="0" />
    <path
       style="fill:#3489a1;fill-opacity:1;fill-rule:evenodd;stroke:none;stroke-width:1.70522207pt;stroke-linecap:butt;stroke-linejoin:miter"
       d="m 71.281973,852.90119 c 0,0 3.819697,-16.02908 3.819697,-16.02908 2.012162,-8.67958 6.258165,-16.37014 14.289761,-16.37014 0.716193,0 1.415334,0.3581 1.943953,0.44336 0,0 3.103504,-12.29465 3.103504,-12.29465 -0.716193,0 -1.500595,-0.0853 -2.387311,-0.0853 -5.91712,0 -10.879316,4.16074 -14.187447,10.12902 0,0 -0.341044,0 -0.341044,0 0.494514,-2.91593 0.92082,-5.67839 1.244812,-8.4238 0,0 -10.964578,0 -10.964578,0 -0.630932,3.54686 -1.602908,10.48712 -3.086451,16.74528 0,0 -6.241113,25.88527 -6.241113,25.88527 0,0 12.806217,0 12.806217,0 z"
       id="path90"
       inkscape:connector-curvature="0" />
    <path
       style="fill:#3489a1;fill-opacity:1;fill-rule:evenodd;stroke:none;stroke-width:1.70522207pt;stroke-linecap:butt;stroke-linejoin:miter"
       d="m 127.86124,841.39094 c -3.52981,1.72228 -7.55413,1.27892 -12.24349,1.27892 -3.70034,0 -6.56511,-0.64798 -8.13391,-1.90985 -0.81851,-1.38123 -1.15955,-3.52981 -1.09135,-4.91104 17.2739,0.46041 28.17027,-3.52981 28.71594,-14.44323 0.40926,-8.23622 -5.61018,-12.84032 -14.35797,-12.84032 -15.61983,0 -25.851162,13.77819 -26.516199,27.04482 -0.579775,11.57846 5.422606,17.29095 17.802519,17.29095 4.75757,0 11.06689,-0.54567 16.23371,-2.09742 0,0 -0.40925,-9.41283 -0.40925,-9.41283 z m -4.67231,-19.9852 c -0.20463,4.05843 -5.21798,4.29716 -15.09121,4.2119 1.07429,-3.56391 4.68936,-6.82089 10.60648,-6.82089 2.91593,0 4.58704,1.1084 4.48473,2.60899 z"
       id="path94"
       inkscape:connector-curvature="0" />
    <path
       style="fill:#3489a1;fill-opacity:1;fill-rule:evenodd;stroke:none;stroke-width:1.70522207pt;stroke-linecap:butt;stroke-linejoin:miter"
       d="m 173.06667,841.39094 c -3.52981,1.72228 -7.55413,1.27892 -12.22644,1.27892 -3.71738,0 -6.56511,-0.64798 -8.13391,-1.90985 -0.81851,-1.38123 -1.1766,-3.52981 -1.10839,-4.91104 17.29095,0.46041 28.17026,-3.52981 28.73299,-14.44323 0.40925,-8.23622 -5.61018,-12.84032 -14.35797,-12.84032 -15.63689,0 -25.86822,13.77819 -26.53326,27.04482 -0.56272,11.57846 5.43966,17.29095 17.80252,17.29095 4.77462,0 11.08394,-0.54567 16.25077,-2.09742 0,0 -0.42631,-9.41283 -0.42631,-9.41283 z m -4.65525,-19.9852 c -0.20463,4.05843 -5.21798,4.29716 -15.10827,4.2119 1.09134,-3.56391 4.68936,-6.82089 10.60648,-6.82089 2.91593,0 4.6041,1.1084 4.50179,2.60899 z"
       id="path98"
       inkscape:connector-curvature="0" />
    <path
       style="fill:#3489a1;fill-opacity:1;fill-rule:evenodd;stroke:none;stroke-width:1.70522207pt;stroke-linecap:butt;stroke-linejoin:miter"
       d="m 238.88824,852.90119 c 0.10231,-5.40555 1.39828,-13.89756 2.74541,-19.47363 0,0 5.47376,-23.15692 5.47376,-23.15692 -3.47865,-1.1766 -8.90126,-1.70522 -14.11924,-1.70522 -21.17886,0 -31.68302,15.68804 -32.41627,30.38706 -0.46041,9.22525 4.53589,13.94871 12.3117,13.94871 5.03041,0 10.7088,-2.43847 15.12532,-9.77092 0,0 0.18758,0 0.18758,0 -0.34105,3.52981 -0.7503,6.95731 -0.97198,9.77092 0,0 11.66372,0 11.66372,0 z m -8.74779,-24.35057 c -2.48962,10.84521 -7.57119,14.11924 -11.35678,14.11924 -3.52981,0 -5.06451,-2.50668 -4.85988,-6.15585 0.40925,-8.23622 6.9232,-17.71726 15.14237,-17.71726 1.33007,0 2.37026,-0.23873 3.34223,-0.47746 0,0 -2.26794,10.23133 -2.26794,10.23133 z"
       id="path102"
       inkscape:connector-curvature="0" />
    <path
       style="fill:#3489a1;fill-opacity:1;fill-rule:evenodd;stroke:none;stroke-width:1.70522207pt;stroke-linecap:butt;stroke-linejoin:miter"
       d="m 247.22678,850.88903 c 2.45552,1.90985 7.60529,1.9269 12.97674,2.01216 11.47614,0.0853 20.13867,-4.92809 20.65024,-14.13629 0.28989,-6.1388 -4.46768,-9.77092 -9.12294,-12.20939 -3.35929,-1.61996 -5.04746,-3.17171 -4.9622,-4.97925 0.11937,-2.43846 2.40437,-2.77951 5.76365,-2.77951 3.7856,0 6.82089,0.46041 8.56022,0.80146 0,0 3.44455,-9.24231 3.44455,-9.24231 -1.96101,-1.1766 -5.88302,-1.79048 -10.91342,-1.79048 -11.1351,0 -19.28606,5.88302 -19.74647,14.81838 -0.27284,5.52492 3.70033,9.2423 8.50905,11.76603 3.88791,1.99511 5.21798,3.52981 5.11567,5.69544 -0.11937,2.18269 -2.06332,1.82459 -5.59313,1.82459 -4.14369,0 -8.73074,-0.54567 -11.15215,-0.92082 0,0 -3.52981,9.13999 -3.52981,9.13999 z"
       id="path106"
       inkscape:connector-curvature="0" />
    <path
       style="fill:#3489a1;fill-opacity:1;fill-rule:evenodd;stroke:none;stroke-width:1.70522207pt;stroke-linecap:butt;stroke-linejoin:miter"
       d="m 315.26513,852.90119 c 0,0 10.3166,-42.63055 10.3166,-42.63055 0,0 -12.6357,0 -12.6357,0 0,0 -10.3848,42.63055 -10.3848,42.63055 0,0 12.7039,0 12.7039,0 z m 5.91712,-47.74621 c 4.33127,0 8.18507,-3.58097 8.4238,-9.71977 0.20463,-4.16074 -2.48962,-5.62723 -6.46279,-5.62723 -4.14369,0 -7.92928,2.69425 -8.15096,6.71857 -0.20463,4.05843 2.48962,8.62843 6.18995,8.62843 z"
       id="path110"
       inkscape:connector-curvature="0" />
    <path
       style="fill:#3489a1;fill-opacity:1;fill-rule:evenodd;stroke:none;stroke-width:1.70522207pt;stroke-linecap:butt;stroke-linejoin:miter"
       d="m 339.64982,852.90119 c 0,0 4.50178,-19.2008 4.50178,-19.2008 2.33616,-9.77092 7.36656,-13.19842 11.51025,-13.19842 3.27403,0 4.22895,1.39828 4.07548,3.4275 -0.0853,1.63701 -0.34104,3.35928 -0.68209,4.89398 0,0 -5.72954,24.07774 -5.72954,24.07774 0,0 12.72095,0 12.72095,0 0,0 6.03649,-25.25434 6.03649,-25.25434 0.46041,-2.18268 0.97198,-5.43966 1.07429,-7.41771 0.37515,-7.69056 -3.4616,-10.48712 -10.52122,-10.48712 -5.66134,0 -11.16921,2.62604 -15.51752,8.32148 0,0 -0.17052,0 -0.17052,0 0,0 1.15955,-7.79286 1.15955,-7.79286 0,0 -11.22036,0 -11.22036,0 -0.73325,3.64917 -1.67112,8.0657 -3.00119,13.21547 0,0 -6.95731,29.41508 -6.95731,29.41508 0,0 12.72096,0 12.72096,0 z"
       id="path114"
       inkscape:connector-curvature="0" />
    <path
       style="fill:#3489a1;fill-opacity:1;fill-rule:evenodd;stroke:none;stroke-width:1.70522207pt;stroke-linecap:butt;stroke-linejoin:miter"
       d="m 394.38744,852.90119 c 0,0 12.72096,0 12.72096,0 0,0 5.72954,-23.87311 5.72954,-23.87311 0,0 20.65024,0 20.65024,0 0,0 2.66015,-10.23133 2.66015,-10.23133 0,0 -20.75255,0 -20.75255,0 0,0 3.44454,-15.347 3.44454,-15.347 0,0 22.08263,0 22.08263,0 0,0 2.66014,-11.93655 2.66014,-11.93655 0,0 -34.87179,0 -34.87179,0 0,0 -14.32386,61.38799 -14.32386,61.38799 z"
       id="path118"
       inkscape:connector-curvature="0" />
    <path
       style="fill:#3489a1;fill-opacity:1;fill-rule:evenodd;stroke:none;stroke-width:1.70522207pt;stroke-linecap:butt;stroke-linejoin:miter"
       d="m 451.44417,852.90119 c 0,0 3.81969,-16.02908 3.81969,-16.02908 2.01217,-8.67958 6.25817,-16.37014 14.28976,-16.37014 0.7162,0 1.41534,0.3581 1.94396,0.44336 0,0 3.1035,-12.29465 3.1035,-12.29465 -0.71619,0 -1.50059,-0.0853 -2.38731,-0.0853 -5.91712,0 -10.87932,4.16074 -14.18745,10.12902 0,0 -0.34104,0 -0.34104,0 0.49451,-2.91593 0.92082,-5.67839 1.24481,-8.4238 0,0 -10.96458,0 -10.96458,0 -0.61388,3.54686 -1.6029,10.48712 -3.08645,16.74528 0,0 -6.24111,25.88527 -6.24111,25.88527 0,0 12.80622,0 12.80622,0 z"
       id="path122"
       inkscape:connector-curvature="0" />
    <path
       style="fill:#3489a1;fill-opacity:1;fill-rule:evenodd;stroke:none;stroke-width:1.70522207pt;stroke-linecap:butt;stroke-linejoin:miter"
       d="m 508.02343,841.39094 c -3.52981,1.72228 -7.55413,1.27892 -12.24349,1.27892 -3.70033,0 -6.56511,-0.64798 -8.13391,-1.90985 -0.81851,-1.38123 -1.15955,-3.52981 -1.09134,-4.91104 17.2739,0.46041 28.17027,-3.52981 28.71594,-14.44323 0.40925,-8.23622 -5.61018,-12.84032 -14.35797,-12.84032 -15.61984,0 -25.85117,13.77819 -26.5162,27.04482 -0.57978,11.57846 5.43965,17.29095 17.80251,17.29095 4.75757,0 11.08395,-0.54567 16.23372,-2.09742 0,0 -0.40926,-9.41283 -0.40926,-9.41283 z m -4.6723,-19.9852 c -0.20463,4.05843 -5.21798,4.29716 -15.09122,4.2119 1.07429,-3.56391 4.68936,-6.82089 10.60648,-6.82089 2.91593,0 4.58705,1.1084 4.48474,2.60899 z"
       id="path126"
       inkscape:connector-curvature="0" />
    <path
       style="fill:#3489a1;fill-opacity:1;fill-rule:evenodd;stroke:none;stroke-width:1.70522207pt;stroke-linecap:butt;stroke-linejoin:miter"
       d="m 553.22887,841.39094 c -3.52981,1.72228 -7.55413,1.27892 -12.22644,1.27892 -3.71738,0 -6.56511,-0.64798 -8.13391,-1.90985 -0.81851,-1.38123 -1.1766,-3.52981 -1.10839,-4.91104 17.29095,0.46041 28.17026,-3.52981 28.73299,-14.44323 0.40925,-8.23622 -5.61018,-12.84032 -14.35797,-12.84032 -15.63689,0 -25.86822,13.77819 -26.53326,27.04482 -0.56272,11.57846 5.43966,17.29095 17.80252,17.29095 4.77462,0 11.08394,-0.54567 16.25077,-2.09742 0,0 -0.42631,-9.41283 -0.42631,-9.41283 z m -4.65525,-19.9852 c -0.20463,4.05843 -5.21798,4.29716 -15.10827,4.2119 1.09134,-3.56391 4.68936,-6.82089 10.60648,-6.82089 2.91593,0 4.6041,1.1084 4.50179,2.60899 z"
       id="path130"
       inkscape:connector-curvature="0" />
    <path
       style="fill:#3489a1;fill-opacity:1;fill-rule:evenodd;stroke:none;stroke-width:1.70522207pt;stroke-linecap:butt;stroke-linejoin:miter"
       d="m 603.77164,789.80798 c 0,0 -4.79167,19.37132 -4.79167,19.37132 -1.73933,-0.71619 -4.00727,-0.61388 -5.7807,-0.61388 -16.33603,0 -27.89743,13.98282 -28.66478,29.12519 -0.51157,10.67469 5.18387,15.21058 12.51633,15.21058 5.13271,0 10.53827,-2.26794 14.6308,-8.1339 0,0 0.17052,0 0.17052,0 0,0 -0.97197,8.1339 -0.97197,8.1339 0,0 11.5614,0 11.5614,0 0.52862,-5.11566 1.63701,-11.2033 2.88183,-16.76233 0,0 11.06689,-46.33088 11.06689,-46.33088 0,0 -12.61865,0 -12.61865,0 z m -9.95849,41.64152 c -1.99511,8.40675 -6.70152,11.22036 -10.41891,11.22036 -3.70033,0 -5.76365,-2.57488 -5.50787,-7.16193 0.42631,-8.49201 6.25817,-16.71118 13.84641,-16.71118 2.13152,0 3.95611,0.324 4.96219,0.80146 0,0 -2.88182,11.85129 -2.88182,11.85129 z"
       id="path134"
       inkscape:connector-curvature="0" />
    <path
       style="fill:#3489a1;fill-opacity:1;fill-rule:evenodd;stroke:none;stroke-width:1.70522207pt;stroke-linecap:butt;stroke-linejoin:miter"
       d="m 632.77748,852.90119 c 14.83543,0 26.27747,-11.23741 27.07892,-26.53325 0.49452,-10.12902 -5.81481,-17.80252 -17.46147,-17.80252 -15.3811,0 -26.41389,12.44812 -27.18124,27.48818 -0.52862,10.94752 6.531,16.84759 17.56379,16.84759 z m 1.99511,-10.23133 c -4.33127,0 -6.71858,-2.76246 -6.4628,-6.8891 0.34105,-6.87204 4.58705,-16.98401 11.90245,-16.98401 5.04746,0 6.59921,3.87086 6.39459,7.6735 -0.37515,7.50298 -4.94515,16.19961 -11.83424,16.19961 z"
       id="path138"
       inkscape:connector-curvature="0" />
    <path
       style="fill:#3489a1;fill-opacity:1;fill-rule:evenodd;stroke:none;stroke-width:1.70522207pt;stroke-linecap:butt;stroke-linejoin:miter"
       d="m 675.66381,852.90119 c 0,0 4.6041,-19.47363 4.6041,-19.47363 1.9269,-8.67958 6.73562,-14.63081 11.04984,-14.63081 3.1035,0 3.95611,2.26795 3.80264,5.23503 -0.0853,1.5347 -0.4263,3.25698 -0.7844,4.9622 0,0 -5.69544,23.90721 -5.69544,23.90721 0,0 12.2776,0 12.2776,0 0,0 4.6041,-19.55889 4.6041,-19.55889 2.11447,-8.95242 6.65036,-14.54555 10.87931,-14.54555 2.91593,0 4.12664,2.08037 3.99022,5.04746 -0.0853,1.72227 -0.44336,3.61507 -0.88671,5.33734 0,0 -5.52492,23.71964 -5.52492,23.71964 0,0 12.36286,0 12.36286,0 0,0 5.95122,-25.25434 5.95122,-25.25434 0.46041,-2.26794 0.98903,-5.79775 1.07429,-7.60529 0.37515,-7.50297 -3.29108,-11.47614 -9.90734,-11.47614 -5.66134,0 -11.1692,2.55783 -15.347,7.94633 -0.15347,-3.8879 -2.93298,-7.94633 -9.82208,-7.94633 -5.57607,0 -10.89636,2.52373 -15.15942,8.23622 0,0 -0.17052,0 -0.17052,0 0,0 1.1425,-6.531 1.1425,-6.531 0,0 -10.94753,0 -10.94753,0 -0.71619,3.64918 -1.58585,8.0657 -2.91593,13.21547 0,0 -6.85499,29.41508 -6.85499,29.41508 0,0 12.2776,0 12.2776,0 z"
       id="path142"
       inkscape:connector-curvature="0" />
    <path
       style="fill:none;fill-opacity:1;fill-rule:evenodd;stroke:#3489a1;stroke-width:8.52610779;stroke-linecap:butt;stroke-linejoin:miter;stroke-miterlimit:4;stroke-opacity:1"
       id="path2592"
       d="m 404.74022,738.48826 c 0.69221,1.77962 1.38445,3.55633 2.1055,5.2941 1.11046,2.36077 2.39396,4.6206 3.93704,6.73045 8.33557,11.33086 22.29546,17.53495 40.01931,19.07947 0,0 19.06506,0 19.06506,0 6.02811,-0.47014 12.34467,-1.34696 18.89198,-2.62759 11.29193,-2.2079 23.26167,-5.5998 35.69288,-10.13244 9.41715,-3.43375 19.0939,-7.49624 28.91485,-12.21778 21.38688,-10.25215 43.48041,-23.47509 65.15575,-39.43235 7.13857,-5.25082 13.98872,-10.63863 20.56487,-16.1173 6.02813,-5.01576 11.8111,-10.10942 17.33446,-15.25927 15.41645,-14.85689 27.0545,-29.94597 33.64507,-43.1949 6.86452,-13.7969 8.23461,-25.59358 2.61028,-33.02493 -3.44673,-4.56146 -9.21527,-7.00589 -16.64228,-7.5813 33.45753,-25.10471 52.95528,-55.55833 45.96096,-74.75894 -2.22096,-6.12764 -7.10981,-10.6992 -14.11858,-13.22728 -3.11497,-1.12052 -6.61943,-1.83006 -10.4411,-2.1531 0,0 -10.29683,0 -10.29683,0 -14.37808,1.03688 -35.28664,6.18532 -53.0249,14.87852"
       sodipodi:nodetypes="cccccssccccscccsccc"
       inkscape:connector-curvature="0" />
  </g>
</svg>
