<?xml version="1.0" encoding="UTF-8" standalone="no"?>
<!-- Created with Inkscape (http://www.inkscape.org/) -->

<svg
   xmlns:dc="http://purl.org/dc/elements/1.1/"
   xmlns:cc="http://creativecommons.org/ns#"
   xmlns:rdf="http://www.w3.org/1999/02/22-rdf-syntax-ns#"
   xmlns:svg="http://www.w3.org/2000/svg"
   xmlns="http://www.w3.org/2000/svg"
   xmlns:xlink="http://www.w3.org/1999/xlink"
   xmlns:sodipodi="http://sodipodi.sourceforge.net/DTD/sodipodi-0.dtd"
   xmlns:inkscape="http://www.inkscape.org/namespaces/inkscape"
   width="75.583824mm"
   height="75.583824mm"
   viewBox="0 0 75.583825 75.583825"
   version="1.1"
   id="svg8"
   inkscape:version="0.92.1 r15371"
   sodipodi:docname="logo-brocchetta.svg"
   style="enable-background:new"
   inkscape:export-filename="/home/chiara/brocchetta/share/static/img/logo-brocchetta.png"
   inkscape:export-xdpi="30.959999"
   inkscape:export-ydpi="30.959999">
  <defs
     id="defs2">
    <linearGradient
       inkscape:collect="always"
       id="linearGradient5081">
      <stop
         style="stop-color:#8f0d0d;stop-opacity:1;"
         offset="0"
         id="stop5077" />
      <stop
         style="stop-color:#ffa3a3;stop-opacity:1"
         offset="1"
         id="stop5079" />
    </linearGradient>
    <linearGradient
       inkscape:collect="always"
       xlink:href="#linearGradient5081"
       id="linearGradient5099"
       x1="387.46738"
       y1="233.5"
       x2="402.16666"
       y2="201.75"
       gradientUnits="userSpaceOnUse"
       gradientTransform="rotate(-90.000001,396.29508,204.54741)" />
    <linearGradient
       inkscape:collect="always"
       xlink:href="#linearGradient5081"
       id="linearGradient5117"
       x1="1464.4436"
       y1="882.51971"
       x2="1520"
       y2="762.51971"
       gradientUnits="userSpaceOnUse"
       gradientTransform="matrix(0,-0.26458333,0.26458333,0,191.74767,600.84249)" />
    <filter
       inkscape:collect="always"
       style="color-interpolation-filters:sRGB"
       id="filter4712"
       x="-0.056210674"
       width="1.1124213"
       y="-0.041882273"
       height="1.0837646">
      <feGaussianBlur
         inkscape:collect="always"
         stdDeviation="1.1543093"
         id="feGaussianBlur4714" />
    </filter>
  </defs>
  <sodipodi:namedview
     id="base"
     pagecolor="#ffffff"
     bordercolor="#666666"
     borderopacity="1.0"
     inkscape:pageopacity="0.0"
     inkscape:pageshadow="2"
     inkscape:zoom="0.70710678"
     inkscape:cx="314.17542"
     inkscape:cy="34.53164"
     inkscape:document-units="mm"
     inkscape:current-layer="layer2"
     showgrid="false"
     showguides="true"
     inkscape:guide-bbox="true"
     inkscape:snap-tangential="false"
     inkscape:window-width="1198"
     inkscape:window-height="698"
     inkscape:window-x="2"
     inkscape:window-y="64"
     inkscape:window-maximized="0"
     objecttolerance="15"
     fit-margin-top="0"
     fit-margin-left="0"
     fit-margin-right="0"
     fit-margin-bottom="0">
    <inkscape:grid
       type="xygrid"
       id="grid4566"
       originx="-370.4946"
       originy="-52.246266" />
    <sodipodi:guide
       position="-92.682088,119.73291"
       orientation="1,0"
       id="guide4741"
       inkscape:locked="false" />
  </sodipodi:namedview>
  <metadata
     id="metadata5">
    <rdf:RDF>
      <cc:Work
         rdf:about="">
        <dc:format>image/svg+xml</dc:format>
        <dc:type
           rdf:resource="http://purl.org/dc/dcmitype/StillImage" />
        <dc:title></dc:title>
      </cc:Work>
    </rdf:RDF>
  </metadata>
  <g
     inkscape:groupmode="layer"
     id="layer2"
     inkscape:label="brocca"
     style="display:inline"
     transform="translate(-370.49457,-169.16992)"
     sodipodi:insensitive="true">
    <path
       style="display:inline;opacity:1;fill:#450808;fill-opacity:1;fill-rule:nonzero;stroke:#450808;stroke-width:1;stroke-linecap:butt;stroke-linejoin:round;stroke-miterlimit:4;stroke-dasharray:none;stroke-dashoffset:0;stroke-opacity:1;filter:url(#filter4712)"
       d="m 403.96113,180.86808 c -0.43619,0.003 -0.92715,0.6622 -1.20304,0.91984 -0.36274,0.57335 -1.18313,1.58034 -0.47643,3.09128 -0.45921,-0.13449 -0.92609,-0.26665 -1.40819,-0.39584 -13.10659,-3.5119 -18.75795,8.66938 -21.90668,5.08651 0.3424,-1.27784 -0.93557,-1.62045 -1.27797,-0.34261 l -6.16291,23.00118 c -0.3424,1.27784 0.93504,1.62046 1.27744,0.34261 4.51831,-1.52849 3.32197,11.84689 16.42845,15.35876 12.68603,3.38757 19.7226,1.04204 27.36059,-4.99505 3.74473,1.00339 14.05623,3.76614 16.86256,8.62686 -0.3424,1.27783 0.93556,1.62047 1.27793,0.34262 -2.17762,-3.77178 -3.24622,-7.24747 -3.42198,-11.174 0.51413,3.70005 1.69214,7.43121 3.42198,11.174 0.65382,-9.92943 0.90475,-19.06566 -0.81907,-27.61124 0.3424,-1.27783 -0.93556,-1.62047 -1.27793,-0.34261 -3.24049,1.87087 -9.06738,-1.06007 -10.56527,-1.46141 -0.99478,-2.50273 -2.05922,-4.72839 -3.35483,-6.71535 0.36105,-0.25538 0.66362,-0.74168 0.84026,-1.40095 -0.36944,-0.50317 -1.57628,0.94173 -1.64692,-0.44132 -0.35518,-3.37917 0.44238,-9.17787 -1.90995,-9.80818 -4.69805,-1.30998 -7.89863,0.30907 -11.62929,0.11782 -1.57874,-1.63557 0.3538,-2.8604 -0.13279,-3.26905 -0.0608,-0.0511 -0.12396,-0.0815 -0.18915,-0.0951 -0.0285,-0.006 -0.0577,-0.009 -0.0868,-0.009 z m 8.0791,4.17029 c 0.75409,0.003 1.54218,0.0957 2.37194,0.32711 2.61236,0.65639 2.22329,4.50497 2.27065,7.72097 -2.52298,-2.86543 -5.86697,-5.14137 -10.72128,-6.98045 1.85989,-0.28062 3.81643,-1.0773 6.07869,-1.06763 z"
       id="rect4586-6"
       inkscape:connector-curvature="0"
       transform="rotate(-105,406.93669,206.86886)" />
    <path
       inkscape:connector-curvature="0"
       style="opacity:1;fill:url(#linearGradient5099);fill-opacity:1;fill-rule:nonzero;stroke:url(#linearGradient5117);stroke-width:1;stroke-linecap:round;stroke-linejoin:bevel;stroke-miterlimit:4;stroke-dasharray:none;stroke-dashoffset:0;stroke-opacity:1;paint-order:normal"
       d="m 382.57787,216.3869 c 0.0262,0.46528 0.87228,0.79666 1.21388,1.00976 0.6477,0.202 1.83281,0.73363 3.10937,-0.34004 -0.0111,0.47836 -0.0181,0.96384 -0.0181,1.46296 0,13.56894 13.22916,15.875 10.58332,19.84374 -1.32291,1e-5 -1.32291,1.32292 10e-6,1.32292 h 23.8125 c 1.32291,0 1.32291,-1.32291 -10e-6,-1.32292 -2.64583,-3.96875 10.58334,-6.27491 10.58334,-19.84375 -0.0112,-13.13053 -4.09801,-19.32018 -11.90625,-25.13541 0,-3.87681 -1e-5,-14.55209 3.96875,-18.52083 1.32292,-1e-5 1.32292,-1.32292 0,-1.32292 -6.61458,6.61458 -13.22917,7.9375 -26.45834,7.9375 -1.32291,0 -1.32292,1.32292 10e-6,1.32291 2.64583,2.64584 1.32291,9.03262 1.32292,10.58334 -2.15999,1.60864 -4.03433,3.21331 -5.61826,4.97903 -0.34012,-0.28263 -0.88844,-0.44907 -1.57097,-0.44907 -0.39041,0.48707 1.31764,1.27863 0,1.70481 -3.1721,1.21767 -8.9793,1.94837 -8.9793,4.3837 -0.0494,4.87701 2.3425,7.54941 3.12333,11.20243 -1.17123,1.94826 -2.85454,0.3983 -3.12333,0.97409 -0.0336,0.072 -0.0466,0.14126 -0.0429,0.20775 z m 1.65365,-11.17298 c -0.0421,-2.69322 3.77569,-3.31386 6.86986,-4.19198 -2.1148,3.17865 -3.4477,6.99818 -3.96771,12.16308 -1.00324,-2.29851 -2.93707,-4.52557 -2.90215,-7.9711 z"
       id="path4575" />
    <path
       style="opacity:1;fill:#450808;fill-opacity:1;fill-rule:nonzero;stroke:#6b2b2b;stroke-width:1;stroke-linecap:butt;stroke-linejoin:round;stroke-miterlimit:4;stroke-dasharray:none;stroke-dashoffset:0;stroke-opacity:1"
       d="m 397.46642,181.47791 c 9.76029,1.93841 18.52083,-1.32292 26.45833,-7.9375 -9.76031,1.93841 -18.6501,4.06068 -26.45833,7.9375 z"
       id="rect4586"
       inkscape:connector-curvature="0"
       sodipodi:nodetypes="ccc" />
    <path
       style="display:inline;fill:none;fill-rule:evenodd;stroke:#8f0d0d;stroke-width:1;stroke-linecap:round;stroke-linejoin:miter;stroke-miterlimit:4;stroke-dasharray:none;stroke-opacity:0.56470588"
       d="m 432.05023,217.38535 c -15.78154,2.70869 -29.23773,3.55162 -45.24989,3.62454 m 2.69211,7.18548 c 16.01217,-0.0729 25.67264,-0.0448 41.45419,-2.75346"
       id="path5439-0-8"
       inkscape:connector-curvature="0"
       sodipodi:nodetypes="cccc" />
    <path
       style="display:inline;fill:none;fill-rule:evenodd;stroke:#8f0d0d;stroke-width:0.99999994;stroke-linecap:round;stroke-linejoin:miter;stroke-miterlimit:4;stroke-dasharray:none;stroke-opacity:0.56470588"
       d="m 420.26878,190.30713 c -8.01864,2.02952 -13.41319,1.75257 -21.66246,1.14633 m -0.52559,1.63634 c 8.24925,0.60624 14.22393,1.40348 22.24259,-0.62603"
       id="path5439-0-8-7"
       inkscape:connector-curvature="0"
       sodipodi:nodetypes="cccc" />
    <path
       style="display:inline;opacity:0.5;fill:#8f0d0d;fill-opacity:1;fill-rule:evenodd;stroke:#8f0d0d;stroke-width:1;stroke-linecap:round;stroke-linejoin:round;stroke-miterlimit:4;stroke-dasharray:none;stroke-opacity:1"
       d="m 428.6477,201.81877 c -15.78154,2.70869 -24.21923,3.14212 -40.23139,3.21504 m 41.72491,0.82788 c -15.78156,2.70869 -26.65744,2.71212 -42.66961,2.78505 0.56175,-1.08452 0.53256,-1.052 0.35725,-2.07599 16.01216,-0.0729 25.84835,-0.23704 41.62992,-2.94578 -0.48522,0.98219 -0.23797,1.63116 0.68246,2.23671 z m -43.1127,4.88585 c 16.01217,-0.0729 27.81247,0.3503 43.59402,-2.35838"
       id="path5439-0-8-9"
       inkscape:connector-curvature="0"
       sodipodi:nodetypes="cccccccccc" />
    <rect
       style="opacity:1;fill:none;fill-opacity:1;fill-rule:nonzero;stroke:none;stroke-width:1;stroke-linecap:round;stroke-linejoin:round;stroke-miterlimit:4;stroke-dasharray:none;stroke-dashoffset:0;stroke-opacity:1;paint-order:normal"
       id="rect4716"
       width="75.583824"
       height="75.583824"
       x="370.49457"
       y="169.16992" />
  </g>
</svg>
